<?xml version="1.0" encoding="UTF-8"?>
<svg id="svg8" xmlns="http://www.w3.org/2000/svg" xmlns:svg="http://www.w3.org/2000/svg" xmlns:sodipodi="http://sodipodi.sourceforge.net/DTD/sodipodi-0.dtd" xmlns:rdf="http://www.w3.org/1999/02/22-rdf-syntax-ns#" xmlns:inkscape="http://www.inkscape.org/namespaces/inkscape" xmlns:dc="http://purl.org/dc/elements/1.1/" xmlns:cc="http://creativecommons.org/ns#" version="1.1" viewBox="0 0 202.65 217.5">
  <!-- Generator: Adobe Illustrator 29.4.0, SVG Export Plug-In . SVG Version: 2.1.0 Build 152)  -->
  <sodipodi:namedview id="base" bordercolor="#666666" borderopacity="1.0" fit-margin-bottom="0" fit-margin-left="0" fit-margin-right="0" fit-margin-top="0" inkscape:current-layer="layer1" inkscape:cx="337.22019" inkscape:cy="34.756276" inkscape:document-rotation="0" inkscape:document-units="mm" inkscape:pageopacity="0.0" inkscape:pageshadow="2" inkscape:window-height="705" inkscape:window-maximized="1" inkscape:window-width="1366" inkscape:window-x="-8" inkscape:window-y="-8" inkscape:zoom="0.66603375" pagecolor="#ffffff" showgrid="false"/>
  <g id="layer1" inkscape:groupmode="layer" inkscape:label="Layer 1">
    <g id="g909">
      <path id="path985" d="M193.28,135.11c6.03,6.02,9.37,14.08,9.37,22.69s-3.33,16.67-9.36,22.71c-6.03,6.04-14.09,9.38-22.71,9.38-8.59-.01-16.66-3.34-22.7-9.36l-.16-.15v-67.69h21.81l23.75,22.42Z" fill="#d2dc00"/>
      <path id="path987" d="M143.21,182.78l.15.14c-.06,19.05-15.58,34.54-34.63,34.58-17.53,0-32.29-13.13-34.36-30.53v-72.96l59.43,59.34,9.42,9.43Z" fill="#00b1a9"/>
      <path id="path989" d="M141.56,112.69v60.24l-60.32-60.24h60.32Z" fill="#d2dc00"/>
      <path id="path991" d="M67.94,74.14v69.24h-33.33C15.56,143.34.04,127.79,0,108.74c.04-19.04,15.56-34.57,34.61-34.6h33.33Z" fill="#00b1a9"/>
      <path id="path993" d="M193.21,37.35c6.05,6.05,9.38,14.16,9.38,22.85s-3.32,16.56-9.34,22.58l-23.71,22.45h-21.81V37.45l.06-.06c6.04-6.05,14.11-9.39,22.74-9.39s16.65,3.34,22.68,9.35" fill="#d2dc00"/>
      <path id="path995" d="M141.56,44.91v60.31h-60.22l60.22-60.31Z" fill="#d2dc00"/>
      <path id="path997" d="M143.36,33.35v1.56l-.15.14-68.85,67.68V30.54C76.44,13.12,91.2,0,108.73,0h.01c19.05.04,34.58,14.29,34.62,33.35" fill="#00b1a9"/>
    </g>
  </g>
</svg>