<?xml version="1.0" encoding="UTF-8" standalone="no"?>
<!-- Created with Inkscape (http://www.inkscape.org/) -->

<svg
   version="1.1"
   id="svg1"
   width="309.51559"
   height="72.183502"
   viewBox="0 0 1031.7186 240.61168"
   xmlns="http://www.w3.org/2000/svg"
   xmlns:svg="http://www.w3.org/2000/svg">
  <defs
     id="defs1" />
  <g
     id="g1"
     transform="translate(-0.10083693,-0.01352421)">
    <g
       id="g2"
       style="display:inline">
      <path
         style="display:inline;fill:#92e0e4"
         d="m 111.84,240.00875 c -1.584,-0.34362 -3.96,-1.00688 -5.28,-1.4739 C 93.537896,233.92757 83.865326,222.00078 81.943173,208.18101 81.713986,206.53322 81.6,192.47536 81.6,165.85746 v -39.85623 l 23.70287,23.47938 c 13.03658,12.91367 30.12609,29.81782 37.97669,37.5648 l 14.27382,14.08541 -0.37022,4.31459 c -0.82218,9.58172 -4.09103,17.00546 -10.36591,23.54152 -3.561,3.70922 -6.09869,5.57125 -10.65725,7.81975 -5.73002,2.82631 -8.87952,3.5639 -15.84,3.70961 -4.66784,0.0977 -6.0794,0.0132 -8.48,-0.50754 z m 68.58736,-31.86264 c -6.18367,-0.96326 -12.08205,-3.71109 -16.98869,-7.91436 l -1.84133,-1.57738 0.0813,-37.16718 0.0813,-37.16719 11.37052,-0.084 11.37051,-0.084 14.25243,14.32396 c 15.26986,15.34652 16.26546,16.52067 18.60011,21.93594 2.14498,4.97533 2.64256,7.58454 2.63701,13.82803 -0.004,4.92518 -0.087,5.73628 -0.87297,8.57072 -1.74914,6.30786 -4.50252,10.99883 -9.15443,15.59651 -3.34482,3.30583 -5.31605,4.73414 -9.20537,6.67 -6.19804,3.08499 -13.32285,4.16048 -20.33045,3.06888 z M 121.68,158.64002 c -18.7,-18.70063 -34,-34.10889 -34,-34.24058 0,-0.13169 15.26852,-0.23944 33.93004,-0.23944 26.84943,0 33.96185,0.0835 34.08244,0.4 0.0838,0.22 0.11529,15.62826 0.07,34.24058 l -0.0824,33.84059 z m 296.6601,23.4298 c -10.48918,-0.86953 -19.22962,-4.83056 -26.50147,-12.01005 -6.11084,-6.03322 -9.90941,-12.83094 -11.92912,-21.34778 -0.79162,-3.33814 -0.85245,-4.11213 -0.86067,-10.95199 -0.007,-5.9479 0.10328,-7.8804 0.57556,-10.07234 1.92973,-8.95637 5.45915,-15.85679 11.26494,-22.02426 4.91414,-5.22026 10.15119,-8.637662 16.4825,-10.755532 8.17578,-2.734864 18.10686,-2.860168 26.44661,-0.333688 9.90443,3.000494 19.0787,10.96574 23.94082,20.78582 2.9821,6.02297 4.55734,13.30064 4.22506,19.52 -0.21267,3.98084 -0.66966,5.38736 -2.30078,7.08141 -2.48649,2.58242 -1.43201,2.49041 -29.84355,2.60407 -13.772,0.0551 -25.04,0.18162 -25.04,0.28116 0,0.88351 1.21349,4.48976 2.02694,6.02366 4.00353,7.54936 14.20963,10.3569 25.62465,7.04896 1.42571,-0.41315 5.21261,-1.91408 8.41535,-3.3354 3.20274,-1.42131 6.6286,-2.794 7.61303,-3.05041 4.46503,-1.16299 9.39497,1.44558 11.05742,5.85079 1.4515,3.84621 0.32454,8.54877 -2.95958,12.3498 -3.67838,4.25733 -11.25417,8.48995 -18.94683,10.58566 -5.41869,1.47622 -13.61981,2.22024 -19.29088,1.75012 z m 18.7214,-55.67157 c -0.92709,-5.10076 -3.98382,-9.10742 -8.67792,-11.37473 -8.02276,-3.87509 -17.64157,-0.73031 -21.73756,7.1069 -0.89568,1.71376 -2.16602,5.09643 -2.16602,5.76766 0,0.0561 7.39634,0.10192 16.43632,0.10192 h 16.43631 z M 649.28,182.04849 c -9.97966,-0.77612 -19.17193,-5.05298 -26.40372,-12.28477 -8.64603,-8.64603 -12.73015,-18.96487 -12.73015,-32.16372 0,-13.55726 4.082,-23.83873 13.03602,-32.83426 6.15115,-6.17967 12.0654,-9.43242 20.43652,-11.239783 2.03201,-0.43872 4.06016,-0.562793 9.02133,-0.551882 5.60799,0.01233 6.77621,0.106999 9.44,0.764967 7.92521,1.95756 13.44986,5.08586 19.20754,10.876158 2.9058,2.92227 6.21671,7.39371 7.81779,10.55806 3.07354,6.07453 5.0537,16.95523 4.03135,22.15175 -0.75145,3.81953 -2.10224,5.44312 -5.45668,6.55869 -1.63393,0.54339 -3.54299,0.59224 -26.6524,0.68199 l -24.8924,0.0967 0.21088,1.18881 c 1.12444,6.33879 5.52818,10.98427 12.0823,12.74556 2.84683,0.76503 7.68703,0.9017 11.05999,0.3123 3.849,-0.67258 6.48687,-1.56725 12.30364,-4.17293 7.05369,-3.15978 9.13518,-3.79377 11.20143,-3.4118 2.82562,0.52235 4.27053,1.28089 5.95898,3.12832 3.46431,3.79051 3.39168,9.40488 -0.18319,14.16051 -4.08712,5.43707 -13.85274,10.6634 -23.34943,12.49607 -2.81617,0.54347 -11.32771,1.3925 -12.4598,1.24288 -0.176,-0.0233 -1.832,-0.15988 -3.68,-0.3036 z M 668.37176,126.32 c -0.2968,-2.52611 -2.22144,-6.1489 -4.40564,-8.29282 -7.17103,-7.03881 -19.35112,-5.91673 -24.92863,2.29652 -1.21534,1.78967 -2.49682,4.69337 -2.99938,6.7963 l -0.2103,0.88 h 16.37067 16.37067 z M 917.92,182.05451 c -10.57653,-0.84079 -19.04514,-4.75589 -26.56975,-12.2834 -5.31071,-5.31276 -8.54364,-10.52709 -10.67629,-17.21957 -1.64311,-5.15624 -2.08334,-8.31565 -2.08334,-14.95154 0,-8.47698 1.17947,-14.19493 4.26367,-20.6698 5.75046,-12.07237 16.09399,-20.479758 28.72196,-23.345689 3.44973,-0.782919 12.37859,-0.960158 16.26298,-0.322821 6.28455,1.031145 12.1189,3.44888 16.93442,7.01757 10.00225,7.41248 15.79063,17.89676 16.8142,30.45497 0.54495,6.68597 -0.42921,10.34314 -3.21364,12.06462 -2.87995,1.78053 -3.67561,1.82952 -29.81421,1.83559 -27.17213,0.006 -24.36843,-0.34198 -23.40431,2.90748 0.82894,2.79389 1.99394,4.78029 3.92154,6.68652 3.21906,3.18337 6.99753,4.67771 12.68277,5.0159 5.65501,0.33638 10.26575,-0.81755 19.04,-4.76515 6.40285,-2.8807 8.465,-3.4862 10.65757,-3.12935 2.4287,0.39528 3.80656,1.04112 5.44686,2.5531 3.27341,3.01732 3.89945,8.05162 1.57362,12.6543 -1.10782,2.19233 -4.52345,5.64439 -7.59805,7.67912 -7.00331,4.63467 -14.85824,7.12975 -24.67361,7.83744 -2.44552,0.17632 -4.59039,0.30135 -4.76639,0.27784 -0.176,-0.0235 -1.76,-0.15721 -3.52,-0.29713 z m 18.88755,-55.55568 c -0.97167,-6.4796 -6.58832,-11.92325 -13.36755,-12.95583 -6.46394,-0.98456 -13.25636,2.11774 -16.5207,7.54549 -1.07859,1.79341 -2.5993,5.56466 -2.5993,6.44607 0,0.40118 2.25805,0.46544 16.35633,0.46544 h 16.35634 z m 53.45964,55.40327 c -10.88443,-1.48184 -20.11527,-6.98612 -22.59318,-13.47213 -2.00153,-5.23908 -0.54753,-11.31198 3.43676,-14.35421 1.97183,-1.50561 3.26627,-1.8601 6.13125,-1.6791 2.86155,0.18078 5.06812,0.8858 10.82903,3.45995 6.17593,2.75959 7.8227,3.26503 11.12895,3.41581 2.538,0.11574 3.0507,0.0432 4.3174,-0.61054 0.7906,-0.40804 1.7626,-1.23118 2.16,-1.8292 2.412,-3.62942 -0.7869,-6.50697 -12.59903,-11.33353 -7.68219,-3.13902 -14.60083,-7.14212 -17.94606,-10.38352 -2.27851,-2.2078 -4.09428,-5.12492 -5.11068,-8.21054 -0.75271,-2.2851 -0.85367,-3.10498 -0.87002,-7.06509 -0.0154,-3.72329 0.10272,-4.9021 0.69917,-6.97898 1.76401,-6.14239 5.74661,-11.32213 11.68706,-15.200101 10.51864,-6.866641 27.92056,-6.833198 39.72846,0.07635 2.8174,1.648664 6.5531,5.299411 7.4796,7.309531 2.1512,4.66718 1.4576,9.33431 -1.8813,12.65913 -3.7445,3.72873 -7.6293,3.94382 -15.1369,0.83808 -6.5222,-2.69815 -8.8673,-3.43411 -11.4457,-3.59204 -1.44188,-0.0883 -2.90846,0.006 -3.58951,0.23071 -1.62807,0.53731 -2.77249,2.00298 -2.77249,3.55074 0,2.58247 2.80339,4.59417 10.9162,7.83341 10.6648,4.25821 16.32,7.51225 20.8024,11.96982 3.0084,2.99172 4.5722,5.59603 5.6033,9.33106 0.8302,3.00732 0.7539,9.21554 -0.1546,12.5733 -2.6923,9.95077 -11.2344,17.82781 -22.4114,20.66654 -5.2494,1.33324 -12.23669,1.63482 -18.40871,0.79455 z m -692.27354,-0.93761 c -2.39273,-0.67343 -3.47847,-1.30142 -5.0555,-2.92405 -1.60515,-1.65159 -2.78841,-3.98647 -3.57817,-7.06066 C 288.83949,168.95372 288.8,165.58424 288.8,123.2 V 77.6 l 0.72545,-2.503426 c 0.92333,-3.186289 1.71645,-4.729166 3.332,-6.481837 4.18102,-4.535867 13.16586,-4.606396 17.50288,-0.137394 1.46705,1.511698 2.63674,3.732768 3.45609,6.562657 0.48588,1.678115 0.57781,4.075179 0.72975,19.02708 l 0.17383,17.10708 16.98826,-19.18708 c 9.34355,-10.552894 18.23219,-20.362849 19.75255,-21.799899 3.49826,-3.306571 5.49357,-4.328238 8.81481,-4.513477 3.36426,-0.187639 5.48331,0.628511 8.17889,3.150092 2.78712,2.607218 3.8459,4.944576 3.8305,8.456204 -0.0138,3.153215 -0.81228,5.526443 -2.87941,8.558453 -0.81337,1.193034 -8.07647,9.040153 -16.23858,17.544327 -8.12186,8.46223 -14.80644,15.49319 -14.85462,15.62435 -0.0482,0.13117 7.78432,8.79622 17.40557,19.25568 9.62124,10.45945 18.12117,19.80919 18.88871,20.77719 2.98858,3.76909 4.8616,8.61554 4.43335,11.47133 -0.43095,2.87376 -1.41132,4.81395 -3.51833,6.96284 -2.80276,2.85849 -4.88359,3.78974 -8.48843,3.7989 -2.43372,0.006 -2.95231,-0.10412 -4.82596,-1.02652 -1.31421,-0.64698 -3.10669,-1.97824 -4.79327,-3.55991 C 355.93232,175.29708 345.72,164.21299 334.72,152.05531 l -20,-22.10486 -0.17764,19.90478 c -0.15913,17.83052 -0.23704,20.10485 -0.74769,21.82477 -1.35127,4.55122 -3.78036,7.53291 -7.1876,8.82272 -2.35067,0.88985 -6.33373,1.10338 -8.61342,0.46177 z m 511.76635,0.0462 c -4.44006,-1.15417 -6.94175,-4.00118 -8.57737,-9.76135 L 800.48714,168.8 800.38433,121.76 c -0.0741,-33.918231 -7.3e-4,-47.873663 0.26316,-50.028583 0.36053,-2.94415 1.20534,-6.052166 2.13321,-7.848012 0.90319,-1.748069 2.95854,-3.62649 4.98011,-4.551408 1.74532,-0.798527 2.38523,-0.915778 5.03919,-0.923338 2.13386,-0.0061 3.53792,0.164985 4.71048,0.573895 2.28893,0.798233 4.63734,2.986662 5.85142,5.452813 2.13421,4.335184 2.03045,2.849413 2.22303,31.83158 l 0.17507,26.346943 2.38909,-2.50694 c 10.84595,-11.381 21.87584,-22.45167 23.40059,-23.487107 3.02641,-2.055193 4.83389,-2.650264 8.13032,-2.676725 2.35065,-0.01887 3.1694,0.110344 4.45451,0.703 3.89079,1.794322 6.26549,5.153452 6.26549,8.862862 0,3.55865 -1.88351,7.60599 -5.16396,11.09643 -0.76782,0.81698 -5.10404,4.89653 -9.63604,9.06567 -4.532,4.16914 -8.24,7.61809 -8.24,7.66433 0,0.0462 5.52991,6.60763 12.28869,14.58087 6.75878,7.97323 12.81121,15.37585 13.44986,16.45026 1.66702,2.80446 2.25114,4.96972 2.25353,8.35346 0.002,2.50825 -0.1089,3.09097 -0.85733,4.51443 -2.9822,5.67195 -10.39169,7.75245 -16.80475,4.71859 -3.34662,-1.5832 -5.63417,-4.24967 -19.13,-22.29867 l -12.8,-17.11842 -0.17665,14.45203 c -0.19022,15.56267 -0.23177,15.96703 -2.04976,19.94809 -1.76988,3.87571 -5.2399,6.14829 -9.72598,6.36972 -1.39145,0.0687 -3.13802,-0.0587 -4.04761,-0.2951 z m -326.48635,-0.3868 c -4.09906,-1.10357 -6.43592,-3.52663 -7.91417,-8.20609 -1.33857,-4.23733 -1.50502,-8.96026 -1.35118,-38.33778 0.11848,-22.62592 0.21614,-27.06322 0.63733,-28.96 1.20695,-5.435403 3.17879,-8.555797 6.47032,-10.239147 1.75356,-0.896803 2.11495,-0.960853 5.42142,-0.960853 3.28707,0 3.67695,0.068 5.40456,0.94266 1.92449,0.97434 5.22099,4.163904 6.13975,5.9406 l 0.49136,0.95018 2.3005,-1.931577 c 5.65451,-4.747734 10.77936,-6.303275 19.68427,-5.97475 8.93144,0.329504 15.01328,2.922183 20.82611,8.878137 l 2.43397,2.4939 2.68173,-2.53848 c 6.55542,-6.205263 12.07659,-8.533046 20.96306,-8.838265 6.62805,-0.22765 10.84704,0.559879 15.42203,2.878722 7.75292,3.929583 12.98309,12.579483 14.24001,23.550833 0.23715,2.06999 0.31752,10.63097 0.2438,25.96804 -0.0996,20.71693 -0.16333,23.06152 -0.67433,24.8 -1.41992,4.83076 -3.39035,7.47605 -6.695,8.988 -1.74532,0.79853 -2.38523,0.91578 -5.03919,0.92334 -3.78545,0.0108 -5.80275,-0.63659 -7.92249,-2.54242 -1.88885,-1.69825 -3.07541,-3.81612 -3.98065,-7.10507 -0.66095,-2.4014 -0.69791,-3.35496 -0.90313,-23.30385 -0.23921,-23.25213 -0.25359,-23.40547 -2.59825,-27.71082 -1.93542,-3.55388 -4.75714,-4.94245 -9.55548,-4.70227 -5.80551,0.29059 -8.8497,3.00452 -10.63784,9.48377 -0.64379,2.33274 -0.68613,3.43174 -0.88948,23.08932 -0.23392,22.61183 -0.22582,22.51499 -2.23854,26.73228 -1.11613,2.33864 -2.89238,4.05493 -5.39574,5.2136 -1.5621,0.72301 -2.21885,0.83162 -4.9984,0.82662 -2.55393,-0.005 -3.55534,-0.14914 -4.96,-0.71591 -3.82275,-1.54244 -6.05686,-4.79982 -7.39124,-10.77659 -0.2275,-1.019 -0.44316,-9.0949 -0.59389,-22.24 -0.20268,-17.67552 -0.31294,-20.9307 -0.76765,-22.66399 -1.71498,-6.53714 -5.05685,-9.24766 -11.04255,-8.95638 -5.88128,0.28619 -9.1232,3.1636 -10.81245,9.59677 -0.45663,1.73894 -0.56141,4.92705 -0.7449,22.6636 -0.20335,19.65758 -0.24569,20.75658 -0.88948,23.08932 -0.76705,2.77935 -1.88735,5.14997 -3.13384,6.63134 -2.4563,2.91914 -7.79701,4.25678 -12.23035,3.06321 z m 231.40907,0.0649 c -3.44724,-0.87977 -5.60401,-2.71428 -7.20535,-6.12874 -2.06279,-4.39837 -2.03737,-3.93728 -2.03737,-36.96 0,-27.75797 0.0422,-30.11655 0.58406,-32.64 1.58707,-7.391043 5.40181,-10.88 11.89594,-10.88 4.58972,0 7.98911,1.813906 10.75829,5.740607 l 1.34441,1.906363 1.54865,-1.39237 c 4.91771,-4.42144 10.38583,-6.411764 18.66865,-6.795144 9.70734,-0.449317 17.75274,2.034373 23.20521,7.163664 4.33262,4.07582 6.73156,8.51677 8.41995,15.58714 0.68231,2.85728 0.69484,3.35977 0.69484,27.86974 0,23.17909 -0.0416,25.10658 -0.58286,27.01441 -1.34127,4.72758 -3.97796,8.02993 -7.34666,9.20138 -2.27157,0.78993 -6.82939,0.78993 -9.10096,0 -2.29324,-0.79746 -4.63999,-2.98482 -5.83282,-5.43665 -2.06854,-4.25183 -2.03349,-3.84703 -2.26351,-26.13914 -0.14177,-13.74024 -0.33421,-20.94171 -0.59428,-22.24 -1.11057,-5.5439 -2.84628,-8.33936 -6.25869,-10.08 -2.17911,-1.11154 -2.2274,-1.12 -6.39469,-1.12 -4.10244,0 -4.24823,0.0242 -6.34087,1.05444 -2.36275,1.16318 -3.68264,2.53383 -4.89378,5.08196 -1.81524,3.81908 -1.83229,4.03449 -2.07334,26.1836 -0.2119,19.47153 -0.25651,20.6101 -0.90586,23.12205 -1.75697,6.7967 -5.15448,9.87126 -11.25168,10.18216 -1.35627,0.0692 -3.11203,-0.0593 -4.03728,-0.29547 z M 32.48,157.40528 C 27.446806,156.67998 21.574193,154.45761 17.367443,151.68624 3.358238,142.45709 -2.8844422,125.98219 1.4667607,109.72316 4.6831385,97.704601 14.280731,87.705549 26.24,83.913678 31.974259,82.095543 32.22245,82.08 55.52,82.08 h 21.44 l 0.08131,37.84 0.08131,37.84 -21.361311,-0.039 C 44.01259,157.69952 33.536,157.55745 32.48,157.40528 Z M 121.44,83.84 c 18.83138,-18.832 34.27513,-34.24 34.31944,-34.24 0.0443,0 0.0806,15.408 0.0806,34.24 v 34.24 H 121.52056 87.201122 Z M 161.6,80.870756 V 43.661511 l 2,-1.954268 c 5.55916,-5.432041 12.30037,-8.551327 20.37277,-9.426855 16.51974,-1.791721 32.53827,9.510108 36.70026,25.893752 1.91076,7.521712 1.14205,15.756846 -2.12076,22.719507 -2.49058,5.31476 -3.50192,6.488291 -19.15446,22.226353 L 184.5191,118.08 H 173.05955 161.6 Z M 81.601287,74.986666 C 81.602698,30.819725 81.568529,31.693746 83.52172,25.863862 87.665291,13.496129 97.33976,4.4636765 110.08,1.068041 c 3.75945,-1.00200032 10.66062,-1.3609061 14.72913,-0.76601102 7.98325,1.16730512 14.88371,4.52854162 20.7419,10.10344502 7.1788,6.831654 11.03212,15.257892 11.73538,25.662339 l 0.22088,3.267814 -37.69207,37.852186 C 99.084576,98.006516 82.005435,115.088 81.861571,115.14667 81.717707,115.20533 81.600579,97.133333 81.601287,74.986666 Z"
         id="path8" />
      <path
         style="display:inline;fill:#d8e35a"
         d="m 113.21133,240.14379 c -5.49781,-0.85606 -11.85424,-3.54429 -16.360859,-6.91927 -7.327577,-5.48757 -12.220382,-13.14268 -14.383883,-22.50452 -0.651973,-2.8212 -0.667957,-3.71199 -0.782906,-43.63228 -0.06903,-23.97209 8.49e-4,-40.70604 0.169699,-40.64 0.157874,0.0617 17.121449,16.79718 37.696829,37.18983 l 37.40979,37.07756 -0.0541,4.20244 c -0.0848,6.58626 -1.79836,12.20719 -5.59655,18.35766 -2.21311,3.58372 -7.17222,8.62659 -10.91235,11.09663 -7.92608,5.23452 -17.535,7.27465 -27.18569,5.77195 z m 67.21603,-31.99768 c -6.18367,-0.96326 -12.08205,-3.71109 -16.98869,-7.91436 l -1.84133,-1.57738 0.0813,-37.16718 0.0813,-37.16719 11.37052,-0.084 11.37051,-0.084 14.25243,14.32396 c 15.26986,15.34652 16.26546,16.52067 18.60011,21.93594 2.14498,4.97533 2.64256,7.58454 2.63701,13.82803 -0.004,4.92518 -0.087,5.73628 -0.87297,8.57072 -1.74914,6.30786 -4.50252,10.99883 -9.15443,15.59651 -3.34482,3.30583 -5.31605,4.73414 -9.20537,6.67 -6.19804,3.08499 -13.32285,4.16048 -20.33045,3.06888 z M 121.68,158.64002 c -18.7,-18.70063 -34,-34.10889 -34,-34.24058 0,-0.13169 15.26852,-0.23944 33.93004,-0.23944 26.84943,0 33.96185,0.0835 34.08244,0.4 0.0838,0.22 0.11529,15.62826 0.07,34.24058 l -0.0824,33.84059 z m 871.76,23.43403 c -12.24425,-0.91815 -21.78141,-5.80013 -25.39207,-12.99797 -1.48798,-2.96627 -1.52876,-7.56295 -0.0958,-10.80232 0.80027,-1.80915 2.99817,-4.20536 4.67352,-5.09519 1.01229,-0.53766 1.8523,-0.6878 3.85438,-0.68888 3.10105,-0.002 5.00419,0.58171 12.15263,3.72531 5.21591,2.29375 8.94785,3.465 11.04048,3.465 2.14606,0 4.33156,-0.87051 5.53796,-2.20587 3.4614,-3.8314 0.5536,-6.80993 -11.58673,-11.86846 -18.35714,-7.64888 -24.40774,-14.03046 -24.42622,-25.76241 -0.009,-5.77452 1.08206,-9.5188 4.11555,-14.12248 3.7596,-5.70564 9.91535,-9.911355 17.36829,-11.866331 3.77543,-0.990331 12.09641,-1.372149 16.41411,-0.753183 10.1943,1.461391 18.7189,6.230567 21.5908,12.079094 0.8193,1.66861 0.9131,2.18837 0.9131,5.05964 0,2.94214 -0.076,3.33675 -0.9402,4.89714 -2.4403,4.40499 -6.9891,6.3368 -11.9366,5.0693 -1.0976,-0.2812 -4.2654,-1.43396 -7.0394,-2.56168 -5.1887,-2.10932 -8.4479,-3.08476 -10.30709,-3.08476 -3.89162,0 -6.71754,3.01237 -5.33463,5.68661 1.01601,1.96475 4.53119,4.03456 11.28492,6.64484 8.3721,3.23574 15.7094,7.33813 19.7692,11.05332 2.4265,2.22047 4.6674,5.65282 5.6507,8.655 0.6827,2.0842 0.7731,2.94031 0.7731,7.32023 0,4.31173 -0.098,5.27262 -0.7511,7.35193 -1.3895,4.4254 -3.5099,7.88237 -6.8436,11.1577 -7.5119,7.38035 -17.6991,10.6032 -30.48527,9.64442 z m -577.6,-0.33626 c -9.83461,-1.33755 -18.01115,-5.5445 -24.98626,-12.8558 -5.99737,-6.28644 -9.47219,-13.14467 -11.2287,-22.16199 -0.78389,-4.02422 -0.7771,-14.14363 0.0123,-18.3787 1.05336,-5.65097 2.95393,-10.76863 5.65281,-15.2213 8.27113,-13.645859 22.18691,-21.059013 37.95204,-20.217635 12.74256,0.680065 23.25116,6.290656 30.72636,16.404955 4.6758,6.32658 7.14442,13.16298 7.7717,21.52233 0.48176,6.42025 -0.43858,10.16574 -2.89784,11.7932 -2.70651,1.79108 -2.81011,1.79787 -29.48243,1.93255 -23.55613,0.11894 -24.56,0.14798 -24.56,0.7106 0,1.27587 1.3354,4.80049 2.50358,6.6079 3.18122,4.92196 8.74738,7.49369 16.18761,7.47917 5.64998,-0.011 8.85832,-0.87315 17.34053,-4.65968 6.51229,-2.90713 8.21476,-3.43239 10.53452,-3.25021 3.4914,0.2742 6.44906,2.34356 7.88499,5.51682 1.08143,2.38984 1.01432,6.0578 -0.15761,8.61485 -1.78582,3.89649 -4.6153,6.66731 -10.14566,9.9353 -4.64523,2.74494 -10.31402,4.74091 -16.46796,5.79831 -3.46061,0.59463 -13.51687,0.85409 -16.64,0.42933 z m 21.6,-54.15056 c 0,-0.95502 -1.01563,-4.19829 -1.79847,-5.74314 -1.14252,-2.25467 -4.23061,-5.39723 -6.4838,-6.59816 -4.78672,-2.5513 -10.62898,-2.64016 -15.51582,-0.236 -4.21826,2.07525 -7.92008,6.99679 -8.98845,11.95007 l -0.22431,1.04 h 16.50542 c 13.26332,0 16.50543,-0.0811 16.50543,-0.41277 z m 209.76,54.12886 c -9.30423,-1.17529 -17.77284,-5.40364 -24.52563,-12.24557 -5.9043,-5.98225 -9.66087,-13.05912 -11.53491,-21.73023 -0.95296,-4.4093 -1.0401,-15.13307 -0.15909,-19.58029 1.3098,-6.61178 3.34728,-11.6726 6.7558,-16.78051 8.84736,-13.258379 23.38728,-20.017128 39.3327,-18.28344 12.7893,1.390534 23.13324,7.9319 30.10644,19.03892 4.18054,6.65884 6.17191,14.30715 5.89077,22.62493 -0.12254,3.62555 -0.21168,4.1027 -1.05519,5.64814 -1.04864,1.92124 -2.11664,2.69143 -4.82927,3.48266 -1.71405,0.49996 -4.3241,0.56621 -26.46162,0.67169 l -24.56,0.11702 v 0.7302 c 0,2.06497 2.06491,6.40852 4.06118,8.54269 3.27522,3.50148 7.15481,5.07021 13.17586,5.32772 6.05276,0.25887 10.30314,-0.72628 17.68156,-4.09823 8.42544,-3.85043 10.27122,-4.31204 13.49486,-3.3749 6.0104,1.74727 8.49831,8.34681 5.47563,14.52494 -3.02076,6.1742 -13.45062,12.44003 -24.28909,14.59189 -5.68115,1.12793 -13.32134,1.45411 -18.56,0.79237 z M 668.79527,127.76 c -0.0194,-0.98232 -1.10291,-4.55264 -1.79792,-5.92417 -1.04709,-2.06633 -4.52838,-5.55192 -6.70131,-6.70958 -4.62808,-2.46569 -11.004,-2.46569 -15.63208,0 -2.20471,1.17459 -5.6594,4.65348 -6.74131,6.78852 -0.95023,1.8752 -2.08265,4.95021 -2.08265,5.65533 0,0.3543 2.89795,0.4299 16.48,0.4299 9.064,0 16.47787,-0.108 16.47527,-0.24 z M 916.8,181.85763 c -9.9687,-1.06757 -18.8642,-5.35067 -25.76,-12.40319 -6.0269,-6.16387 -9.65974,-13.05008 -11.5756,-21.9421 -0.83061,-3.85507 -0.83737,-15.8501 -0.0112,-19.91871 1.75255,-8.63098 5.47146,-15.84901 11.34679,-22.02297 6.02888,-6.335333 12.64855,-10.087173 20.90127,-11.846256 4.40802,-0.939577 13.06857,-1.028811 17.34672,-0.178733 8.07761,1.605038 14.37534,5.016864 20.42242,11.063949 8.19247,8.19246 11.93044,17.20469 11.9579,28.83038 0.011,4.66725 -0.0355,5.05347 -0.78828,6.54365 -1.01528,2.00981 -2.52749,3.20053 -4.96,3.90552 -1.73317,0.50231 -4.32423,0.56782 -26.62809,0.67321 l -24.70808,0.11675 0.19867,1.02044 c 0.71591,3.67713 2.20808,6.42992 4.8523,8.95161 3.39638,3.23899 7.64361,4.69298 13.73869,4.70326 5.34437,0.009 9.77346,-1.16484 17.22864,-4.56617 7.60989,-3.47191 9.55537,-3.91718 12.84567,-2.94007 2.23196,0.66283 4.12825,2.1999 5.31947,4.3118 0.92699,1.64345 0.99268,1.97192 0.99204,4.96 -6.3e-4,2.96649 -0.0741,3.34011 -1.0063,5.12 -2.02711,3.87032 -5.99101,7.3265 -11.83293,10.31728 -5.50539,2.81849 -11.09147,4.44566 -17.78747,5.18132 -2.9185,0.32065 -9.59622,0.38638 -12.09261,0.11903 z M 936.89943,126.32 c -1.02721,-5.88589 -6.22936,-11.33992 -12.10833,-12.69459 -2.10292,-0.48457 -5.9873,-0.41556 -8.1378,0.14457 -5.68927,1.48187 -10.35521,6.30583 -12.1389,12.55002 l -0.4799,1.68 h 16.57906 16.57907 z m -639.51569,54.35635 c -4.25918,-1.38592 -6.74829,-4.64682 -8.00918,-10.49254 C 288.83734,167.69313 288.8,164.62903 288.8,123.04 c 0,-49.168941 -0.10003,-46.641761 2.02603,-51.185057 1.27332,-2.721014 2.6301,-4.145211 5.11424,-5.368369 1.99258,-0.981122 2.33609,-1.046574 5.49262,-1.046574 4.13961,0 6.07935,0.599838 8.2496,2.551083 1.88505,1.694818 3.07138,3.808898 3.98708,7.10507 0.66126,2.380303 0.70434,3.335144 0.87301,19.351658 L 314.72,111.29562 331.84,91.935267 c 9.416,-10.648195 18.24094,-20.41912 19.61099,-21.713168 1.55073,-1.464717 3.29961,-2.7509 4.63327,-3.407456 1.88471,-0.92784 2.4517,-1.054643 4.71574,-1.054643 2.26163,0 2.83184,0.127202 4.70587,1.049783 2.39478,1.178947 4.56396,3.351079 5.74858,5.756411 C 371.89173,73.860165 372,74.56794 372,77.44 c 0,3.100468 -0.0769,3.520662 -0.99514,5.44 -0.54733,1.144 -1.64661,2.944 -2.44285,4 -0.79624,1.056 -7.94442,8.686839 -15.88486,16.95742 -7.94043,8.27058 -14.43715,15.14918 -14.43715,15.28577 0,0.1366 7.93905,8.88437 17.64234,19.43949 9.70329,10.55512 18.25675,20.02052 19.00769,21.03422 1.69041,2.28192 3.18385,5.20043 3.68476,7.20085 1.26203,5.03995 -1.34719,10.39201 -6.43631,13.20225 -1.62138,0.89533 -1.96481,0.96 -5.09848,0.96 -3.03869,0 -3.51784,-0.0832 -5.01056,-0.87047 -0.9078,-0.47876 -2.59093,-1.66825 -3.74027,-2.64331 -1.14935,-0.97506 -11.42259,-12.08324 -22.82944,-24.68485 L 314.72,129.84936 l -0.18249,19.47532 c -0.10037,10.71143 -0.28924,19.83532 -0.41971,20.27532 -0.13047,0.44 -0.39515,1.448 -0.58818,2.24 -0.92291,3.78672 -3.01331,6.62757 -5.93531,8.06606 -1.94551,0.95778 -2.42114,1.05518 -5.50196,1.12676 -2.177,0.0506 -3.846,-0.0758 -4.70861,-0.35647 z M 809.28,180.83763 c -4.27103,-1.39396 -7.01467,-5.01434 -8.15246,-10.75763 -0.45223,-2.28274 -0.49643,-7.86255 -0.40812,-51.52 0.0933,-46.099601 0.13276,-49.071155 0.67613,-50.862576 1.26881,-4.183104 3.2043,-6.761584 6.14912,-8.191921 2.09274,-1.016473 6.86391,-1.267501 9.50391,-0.500034 3.77764,1.098191 6.48512,4.500239 7.79486,9.794531 0.54589,2.206644 0.60673,4.471813 0.75514,28.116106 l 0.16142,25.716104 11.76562,-12.17672 c 14.84482,-15.363498 16.23287,-16.375846 22.45246,-16.375238 2.17526,2.13e-4 2.88433,0.143819 4.50192,0.911761 2.07552,0.985343 4.40363,3.244125 5.12626,4.973602 1.59862,3.826055 0.23718,9.152265 -3.43619,13.442955 -0.73859,0.86271 -5.23701,5.16857 -9.99648,9.56858 -4.75948,4.4 -8.7,8.11737 -8.75672,8.26081 -0.0567,0.14344 5.08911,6.38148 11.43517,13.86232 6.34606,7.48084 12.06642,14.28962 12.71191,15.13062 3.6391,4.74136 4.76202,10.85934 2.76651,15.07272 -0.8183,1.72779 -3.06954,3.82786 -5.14758,4.80192 -1.64487,0.77102 -2.18289,0.85446 -5.50961,0.85446 -3.50078,0 -3.7913,-0.0516 -5.76,-1.0227 -1.1403,-0.56248 -2.87496,-1.73855 -3.85481,-2.61349 -1.12273,-1.00252 -6.68453,-8.12983 -15.04,-19.27339 l -13.25846,-17.6826 -0.18435,14.21609 c -0.1704,13.14007 -0.23542,14.40148 -0.85906,16.66541 -1.29187,4.6897 -3.22168,7.40684 -6.34126,8.92835 -1.31123,0.63953 -2.13862,0.78114 -4.93533,0.8447 -1.848,0.042 -3.72,-0.0411 -4.16,-0.18474 z M 481.78874,180.0245 c -3.47909,-1.46194 -5.65089,-4.45909 -6.80989,-9.39789 C 474.44153,168.33698 474.4,165.9558 474.4,137.44 c 0,-28.5158 0.0415,-30.89698 0.57885,-33.18661 1.13052,-4.817437 3.29202,-7.917306 6.62115,-9.495579 1.53068,-0.725666 2.17695,-0.834605 4.96,-0.836097 2.8355,-0.0015 3.40158,0.09729 4.96973,0.867443 2.35883,1.158475 4.22071,2.798464 5.77416,5.086019 0.70398,1.036654 1.36334,1.884824 1.46526,1.884824 0.10192,0 1.00712,-0.756 2.01156,-1.68 4.89196,-4.500184 11.64181,-6.637487 19.67424,-6.229738 8.75285,0.444321 14.61555,2.890298 20.32009,8.477748 l 3.03021,2.96801 1.77738,-1.72641 c 6.76098,-6.567132 12.75018,-9.258246 21.61737,-9.713297 9.11612,-0.467826 16.58337,2.169395 21.85431,7.718327 3.94335,4.15132 6.29653,9.13412 7.64369,16.18536 0.5282,2.76462 0.58086,5.17057 0.5814,26.56 6.7e-4,26.29389 0.0207,26.02185 -2.2576,30.65046 -2.1272,4.32164 -5.32993,6.00406 -10.99632,5.77647 -2.56443,-0.103 -3.39268,-0.27363 -4.89426,-1.00828 -2.83651,-1.38778 -4.65337,-3.88661 -5.872,-8.07607 -0.48688,-1.6738 -0.58179,-4.38449 -0.78935,-22.54258 -0.21628,-18.92147 -0.2891,-20.88105 -0.87463,-23.53512 -1.09658,-4.97056 -2.93091,-7.77966 -6.08902,-9.32478 -1.58661,-0.77625 -2.16648,-0.88283 -4.69812,-0.86346 -6.29906,0.0482 -9.62201,2.79466 -11.5707,9.56336 -0.48681,1.6909 -0.57722,4.34466 -0.75773,22.24 -0.2261,22.4161 -0.30537,23.36604 -2.29312,27.4795 -1.17721,2.43612 -2.76459,4.10544 -4.92005,5.174 -1.41907,0.7035 -1.99174,0.7865 -5.4265,0.7865 -3.55131,0 -3.97618,-0.0669 -5.65137,-0.88953 -3.04701,-1.49633 -4.90369,-4.09233 -6.2298,-8.71047 -0.48456,-1.68746 -0.57821,-4.41981 -0.77323,-22.56 -0.18391,-17.10545 -0.30944,-21.04207 -0.73305,-22.98786 -0.551,-2.53092 -1.71589,-5.3415 -2.76852,-6.6797 -1.90722,-2.42464 -5.6457,-3.85331 -9.06952,-3.46595 -4.45565,0.5041 -7.20797,2.34969 -8.9937,6.0308 -2.12895,4.38861 -2.19224,5.114 -2.42048,27.74271 -0.17959,17.80454 -0.27273,20.55768 -0.75239,22.24 -1.21541,4.26281 -3.09182,6.84604 -6.1095,8.41084 -1.40384,0.72796 -2.08518,0.8531 -5.13844,0.94381 -3.16363,0.094 -3.71147,0.0241 -5.41126,-0.69015 z M 714.24,180.50076 c -3.89036,-1.18768 -6.54506,-4.32424 -7.89832,-9.33196 -0.50284,-1.86076 -0.56328,-4.83492 -0.6585,-32.4047 -0.11764,-34.05943 -0.11203,-34.16703 2.00738,-38.5032 2.12098,-4.339383 5.02117,-6.020013 10.38944,-6.020579 2.73259,-2.89e-4 3.25042,0.0994 5.12092,0.985859 2.27549,1.07839 4.67581,3.263476 5.9233,5.39215 l 0.79786,1.36144 1.35896,-1.27379 c 3.57488,-3.350818 8.2191,-5.593435 13.47334,-6.506049 4.14973,-0.720772 13.36548,-0.457918 17.10734,0.48794 11.03738,2.789996 17.76999,10.464769 20.09942,22.912129 0.55069,2.9426 0.59886,5.09191 0.59886,26.72 0,21.78762 -0.0438,23.70856 -0.59448,26.08 -1.13548,4.88973 -3.06904,7.79625 -6.21376,9.3405 -1.69891,0.83426 -2.11025,0.8995 -5.67176,0.8995 -3.56151,0 -3.97285,-0.0652 -5.67176,-0.8995 -3.09594,-1.5203 -5.03922,-4.40006 -6.19504,-9.1805 -0.51696,-2.13814 -0.60193,-4.63456 -0.77878,-22.88 -0.18932,-19.533 -0.22981,-20.59326 -0.87552,-22.92932 -1.35421,-4.89926 -3.41323,-7.52969 -6.98488,-8.92329 -2.71728,-1.06025 -8.12253,-1.08188 -10.74109,-0.043 -2.60623,1.034 -4.52513,2.86352 -5.86993,5.5965 -2.13155,4.33187 -2.15035,4.54555 -2.39817,27.2591 -0.24588,22.53614 -0.25263,22.6138 -2.29777,26.45089 -2.13376,4.00334 -5.25485,5.72848 -10.27906,5.6816 -1.6214,-0.0151 -3.308,-0.1374 -3.748,-0.27173 z M 29.76,156.75953 C 20.029731,154.72695 11.081602,148.37422 5.7365302,139.70406 3.8085566,136.57672 2.429129,133.30891 1.3462284,129.30361 0.58489617,126.48768 0.51793164,125.72258 0.51793164,119.84 c 0,-5.92276 0.0633592,-6.63473 0.84968136,-9.54791 1.0148097,-3.75967 3.4143762,-8.91565 5.663353,-12.168911 C 9.0099929,95.260416 13.171959,91.065513 16,89.083167 18.724299,87.173541 23.065908,84.994005 26.152843,83.986328 31.232808,82.32806 32.681452,82.242677 55.76,82.241287 L 77.12,82.24 v 37.6 37.6 L 54.96,157.4173 C 34.142849,157.396 32.615783,157.3561 29.76,156.75955 Z M 121.44,83.84 c 18.83138,-18.832 34.27513,-34.24 34.31944,-34.24 0.0443,0 0.0806,15.408 0.0806,34.24 v 34.24 H 121.52056 87.201122 Z M 161.6,80.870756 V 43.661511 l 2,-1.954268 c 5.55916,-5.432041 12.30037,-8.551327 20.37277,-9.426855 16.51974,-1.791721 32.53827,9.510108 36.70026,25.893752 1.91076,7.521712 1.14205,15.756846 -2.12076,22.719507 -2.49058,5.31476 -3.50192,6.488291 -19.15446,22.226353 L 184.5191,118.08 H 173.05955 161.6 Z M 81.62355,76.96 C 81.618556,55.71765 81.749451,36.844235 81.916503,34.72 82.655778,25.319361 85.957703,18.124634 92.64,11.354043 99.295978,4.6101181 106.30306,1.2430706 115.72573,0.26087038 122.80913,-0.4774881 129.64034,0.77098821 136.22727,4.0077447 148.57357,10.074599 156.40024,21.936445 157.01966,35.52 l 0.18241,4 -37.78475,37.92 -37.784741,37.92 z"
         id="path7" />
      <path
         style="display:inline;fill:#50ced8"
         d="m 113.21133,240.14379 c -5.49781,-0.85606 -11.85424,-3.54429 -16.360859,-6.91927 -7.327577,-5.48757 -12.220382,-13.14268 -14.383883,-22.50452 -0.651973,-2.8212 -0.667957,-3.71199 -0.782906,-43.63228 -0.06903,-23.97209 8.49e-4,-40.70604 0.169699,-40.64 0.157874,0.0617 17.121449,16.79718 37.696829,37.18983 l 37.40979,37.07756 -0.0541,4.20244 c -0.0848,6.58626 -1.79836,12.20719 -5.59655,18.35766 -2.21311,3.58372 -7.17222,8.62659 -10.91235,11.09663 -7.92608,5.23452 -17.535,7.27465 -27.18569,5.77195 z m 66.18882,-32.32103 c -5.91903,-1.17609 -11.75459,-4.0143 -15.88015,-7.72353 l -1.6,-1.43854 V 161.57035 124.48 h 11.29418 11.29418 l 14.548,14.64 c 15.94095,16.04175 16.45269,16.66283 18.72237,22.72258 1.70701,4.55751 2.18125,7.3146 2.15995,12.55742 -0.0158,3.897 -0.14811,5.13057 -0.82603,7.70361 -1.72547,6.54897 -4.60618,11.65135 -9.10458,16.12626 -5.22143,5.19416 -10.99601,8.26093 -18.08819,9.60629 -3.1277,0.59332 -9.50058,0.58649 -12.51973,-0.0134 z M 121.6,158.24 87.841137,124.48 H 121.68057 155.52 v 33.76 c 0,18.568 -0.0363,33.76 -0.0806,33.76 -0.0443,0 -15.27206,-15.192 -33.83943,-33.76 z m 871.84,23.83405 c -12.24425,-0.91815 -21.78141,-5.80013 -25.39207,-12.99797 -1.48798,-2.96627 -1.52876,-7.56295 -0.0958,-10.80232 0.80027,-1.80915 2.99817,-4.20536 4.67352,-5.09519 1.01229,-0.53766 1.8523,-0.6878 3.85438,-0.68888 3.10105,-0.002 5.00419,0.58171 12.15263,3.72531 5.21591,2.29375 8.94785,3.465 11.04048,3.465 2.14606,0 4.33156,-0.87051 5.53796,-2.20587 3.4614,-3.8314 0.5536,-6.80993 -11.58673,-11.86846 -18.35714,-7.64888 -24.40774,-14.03046 -24.42622,-25.76241 -0.009,-5.77452 1.08206,-9.5188 4.11555,-14.12248 3.7596,-5.70564 9.91535,-9.911355 17.36829,-11.866331 3.77543,-0.990331 12.09641,-1.372149 16.41411,-0.753183 10.1943,1.461391 18.7189,6.230567 21.5908,12.079094 0.8193,1.66861 0.9131,2.18837 0.9131,5.05964 0,2.94214 -0.076,3.33675 -0.9402,4.89714 -2.4403,4.40499 -6.9891,6.3368 -11.9366,5.0693 -1.0976,-0.2812 -4.2654,-1.43396 -7.0394,-2.56168 -5.1887,-2.10932 -8.4479,-3.08476 -10.30709,-3.08476 -3.89162,0 -6.71754,3.01237 -5.33463,5.68661 1.01601,1.96475 4.53119,4.03456 11.28492,6.64484 8.3721,3.23574 15.7094,7.33813 19.7692,11.05332 2.4265,2.22047 4.6674,5.65282 5.6507,8.655 0.6827,2.0842 0.7731,2.94031 0.7731,7.32023 0,4.31173 -0.098,5.27262 -0.7511,7.35193 -1.3895,4.4254 -3.5099,7.88237 -6.8436,11.1577 -7.5119,7.38035 -17.6991,10.6032 -30.48527,9.64442 z m -577.6,-0.33626 c -9.83461,-1.33755 -18.01115,-5.5445 -24.98626,-12.8558 -5.99737,-6.28644 -9.47219,-13.14467 -11.2287,-22.16199 -0.78389,-4.02422 -0.7771,-14.14363 0.0123,-18.3787 1.05336,-5.65097 2.95393,-10.76863 5.65281,-15.2213 8.27113,-13.645859 22.18691,-21.059013 37.95204,-20.217635 12.74256,0.680065 23.25116,6.290656 30.72636,16.404955 4.6758,6.32658 7.14442,13.16298 7.7717,21.52233 0.48176,6.42025 -0.43858,10.16574 -2.89784,11.7932 -2.70651,1.79108 -2.81011,1.79787 -29.48243,1.93255 -23.55613,0.11894 -24.56,0.14798 -24.56,0.7106 0,1.27587 1.3354,4.80049 2.50358,6.6079 3.18122,4.92196 8.74738,7.49369 16.18761,7.47917 5.64998,-0.011 8.85832,-0.87315 17.34053,-4.65968 6.51229,-2.90713 8.21476,-3.43239 10.53452,-3.25021 3.4914,0.2742 6.44906,2.34356 7.88499,5.51682 1.08143,2.38984 1.01432,6.0578 -0.15761,8.61485 -1.78582,3.89649 -4.6153,6.66731 -10.14566,9.9353 -4.64523,2.74494 -10.31402,4.74091 -16.46796,5.79831 -3.46061,0.59463 -13.51687,0.85409 -16.64,0.42933 z m 21.6,-54.15056 c 0,-0.95502 -1.01563,-4.19829 -1.79847,-5.74314 -1.14252,-2.25467 -4.23061,-5.39723 -6.4838,-6.59816 -4.78672,-2.5513 -10.62898,-2.64016 -15.51582,-0.236 -4.21826,2.07525 -7.92008,6.99679 -8.98845,11.95007 l -0.22431,1.04 h 16.50542 c 13.26332,0 16.50543,-0.0811 16.50543,-0.41277 z m 209.76,54.12886 c -9.30423,-1.17529 -17.77284,-5.40364 -24.52563,-12.24557 -5.9043,-5.98225 -9.66087,-13.05912 -11.53491,-21.73023 -0.95296,-4.4093 -1.0401,-15.13307 -0.15909,-19.58029 1.3098,-6.61178 3.34728,-11.6726 6.7558,-16.78051 8.84736,-13.258379 23.38728,-20.017128 39.3327,-18.28344 12.7893,1.390534 23.13324,7.9319 30.10644,19.03892 4.18054,6.65884 6.17191,14.30715 5.89077,22.62493 -0.12254,3.62555 -0.21168,4.1027 -1.05519,5.64814 -1.04864,1.92124 -2.11664,2.69143 -4.82927,3.48266 -1.71405,0.49996 -4.3241,0.56621 -26.46162,0.67169 l -24.56,0.11702 v 0.7302 c 0,2.06497 2.06491,6.40852 4.06118,8.54269 3.27522,3.50148 7.15481,5.07021 13.17586,5.32772 6.05276,0.25887 10.30314,-0.72628 17.68156,-4.09823 8.42544,-3.85043 10.27122,-4.31204 13.49486,-3.3749 6.0104,1.74727 8.49831,8.34681 5.47563,14.52494 -3.02076,6.1742 -13.45062,12.44003 -24.28909,14.59189 -5.68115,1.12793 -13.32134,1.45411 -18.56,0.79237 z M 668.79527,127.76 c -0.0194,-0.98232 -1.10291,-4.55264 -1.79792,-5.92417 -1.04709,-2.06633 -4.52838,-5.55192 -6.70131,-6.70958 -4.62808,-2.46569 -11.004,-2.46569 -15.63208,0 -2.20471,1.17459 -5.6594,4.65348 -6.74131,6.78852 -0.95023,1.8752 -2.08265,4.95021 -2.08265,5.65533 0,0.3543 2.89795,0.4299 16.48,0.4299 9.064,0 16.47787,-0.108 16.47527,-0.24 z M 916.8,181.85763 c -9.9687,-1.06757 -18.8642,-5.35067 -25.76,-12.40319 -6.0269,-6.16387 -9.65974,-13.05008 -11.5756,-21.9421 -0.83061,-3.85507 -0.83737,-15.8501 -0.0112,-19.91871 1.75255,-8.63098 5.47146,-15.84901 11.34679,-22.02297 6.02888,-6.335333 12.64855,-10.087173 20.90127,-11.846256 4.40802,-0.939577 13.06857,-1.028811 17.34672,-0.178733 8.07761,1.605038 14.37534,5.016864 20.42242,11.063949 8.19247,8.19246 11.93044,17.20469 11.9579,28.83038 0.011,4.66725 -0.0355,5.05347 -0.78828,6.54365 -1.01528,2.00981 -2.52749,3.20053 -4.96,3.90552 -1.73317,0.50231 -4.32423,0.56782 -26.62809,0.67321 l -24.70808,0.11675 0.19867,1.02044 c 0.71591,3.67713 2.20808,6.42992 4.8523,8.95161 3.39638,3.23899 7.64361,4.69298 13.73869,4.70326 5.34437,0.009 9.77346,-1.16484 17.22864,-4.56617 7.60989,-3.47191 9.55537,-3.91718 12.84567,-2.94007 2.23196,0.66283 4.12825,2.1999 5.31947,4.3118 0.92699,1.64345 0.99268,1.97192 0.99204,4.96 -6.3e-4,2.96649 -0.0741,3.34011 -1.0063,5.12 -2.02711,3.87032 -5.99101,7.3265 -11.83293,10.31728 -5.50539,2.81849 -11.09147,4.44566 -17.78747,5.18132 -2.9185,0.32065 -9.59622,0.38638 -12.09261,0.11903 z M 936.89943,126.32 c -1.02721,-5.88589 -6.22936,-11.33992 -12.10833,-12.69459 -2.10292,-0.48457 -5.9873,-0.41556 -8.1378,0.14457 -5.68927,1.48187 -10.35521,6.30583 -12.1389,12.55002 l -0.4799,1.68 h 16.57906 16.57907 z m -639.51569,54.35635 c -4.25918,-1.38592 -6.74829,-4.64682 -8.00918,-10.49254 C 288.83734,167.69313 288.8,164.62903 288.8,123.04 c 0,-49.168941 -0.10003,-46.641761 2.02603,-51.185057 1.27332,-2.721014 2.6301,-4.145211 5.11424,-5.368369 1.99258,-0.981122 2.33609,-1.046574 5.49262,-1.046574 4.13961,0 6.07935,0.599838 8.2496,2.551083 1.88505,1.694818 3.07138,3.808898 3.98708,7.10507 0.66126,2.380303 0.70434,3.335144 0.87301,19.351658 L 314.72,111.29562 331.84,91.935267 c 9.416,-10.648195 18.24094,-20.41912 19.61099,-21.713168 1.55073,-1.464717 3.29961,-2.7509 4.63327,-3.407456 1.88471,-0.92784 2.4517,-1.054643 4.71574,-1.054643 2.26163,0 2.83184,0.127202 4.70587,1.049783 2.39478,1.178947 4.56396,3.351079 5.74858,5.756411 C 371.89173,73.860165 372,74.56794 372,77.44 c 0,3.100468 -0.0769,3.520662 -0.99514,5.44 -0.54733,1.144 -1.64661,2.944 -2.44285,4 -0.79624,1.056 -7.94442,8.686839 -15.88486,16.95742 -7.94043,8.27058 -14.43715,15.14918 -14.43715,15.28577 0,0.1366 7.93905,8.88437 17.64234,19.43949 9.70329,10.55512 18.25675,20.02052 19.00769,21.03422 1.69041,2.28192 3.18385,5.20043 3.68476,7.20085 1.26203,5.03995 -1.34719,10.39201 -6.43631,13.20225 -1.62138,0.89533 -1.96481,0.96 -5.09848,0.96 -3.03869,0 -3.51784,-0.0832 -5.01056,-0.87047 -0.9078,-0.47876 -2.59093,-1.66825 -3.74027,-2.64331 -1.14935,-0.97506 -11.42259,-12.08324 -22.82944,-24.68485 L 314.72,129.84936 l -0.18249,19.47532 c -0.10037,10.71143 -0.28924,19.83532 -0.41971,20.27532 -0.13047,0.44 -0.39515,1.448 -0.58818,2.24 -0.92291,3.78672 -3.01331,6.62757 -5.93531,8.06606 -1.94551,0.95778 -2.42114,1.05518 -5.50196,1.12676 -2.177,0.0506 -3.846,-0.0758 -4.70861,-0.35647 z M 809.28,180.83763 c -4.27103,-1.39396 -7.01467,-5.01434 -8.15246,-10.75763 -0.45223,-2.28274 -0.49643,-7.86255 -0.40812,-51.52 0.0933,-46.099601 0.13276,-49.071155 0.67613,-50.862576 1.26881,-4.183104 3.2043,-6.761584 6.14912,-8.191921 2.09274,-1.016473 6.86391,-1.267501 9.50391,-0.500034 3.77764,1.098191 6.48512,4.500239 7.79486,9.794531 0.54589,2.206644 0.60673,4.471813 0.75514,28.116106 l 0.16142,25.716104 11.76562,-12.17672 c 14.84482,-15.363498 16.23287,-16.375846 22.45246,-16.375238 2.17526,2.13e-4 2.88433,0.143819 4.50192,0.911761 2.07552,0.985343 4.40363,3.244125 5.12626,4.973602 1.59862,3.826055 0.23718,9.152265 -3.43619,13.442955 -0.73859,0.86271 -5.23701,5.16857 -9.99648,9.56858 -4.75948,4.4 -8.7,8.11737 -8.75672,8.26081 -0.0567,0.14344 5.08911,6.38148 11.43517,13.86232 6.34606,7.48084 12.06642,14.28962 12.71191,15.13062 3.6391,4.74136 4.76202,10.85934 2.76651,15.07272 -0.8183,1.72779 -3.06954,3.82786 -5.14758,4.80192 -1.64487,0.77102 -2.18289,0.85446 -5.50961,0.85446 -3.50078,0 -3.7913,-0.0516 -5.76,-1.0227 -1.1403,-0.56248 -2.87496,-1.73855 -3.85481,-2.61349 -1.12273,-1.00252 -6.68453,-8.12983 -15.04,-19.27339 l -13.25846,-17.6826 -0.18435,14.21609 c -0.1704,13.14007 -0.23542,14.40148 -0.85906,16.66541 -1.29187,4.6897 -3.22168,7.40684 -6.34126,8.92835 -1.31123,0.63953 -2.13862,0.78114 -4.93533,0.8447 -1.848,0.042 -3.72,-0.0411 -4.16,-0.18474 z M 481.78874,180.0245 c -3.47909,-1.46194 -5.65089,-4.45909 -6.80989,-9.39789 C 474.44153,168.33698 474.4,165.9558 474.4,137.44 c 0,-28.5158 0.0415,-30.89698 0.57885,-33.18661 1.13052,-4.817437 3.29202,-7.917306 6.62115,-9.495579 1.53068,-0.725666 2.17695,-0.834605 4.96,-0.836097 2.8355,-0.0015 3.40158,0.09729 4.96973,0.867443 2.35883,1.158475 4.22071,2.798464 5.77416,5.086019 0.70398,1.036654 1.36334,1.884824 1.46526,1.884824 0.10192,0 1.00712,-0.756 2.01156,-1.68 4.89196,-4.500184 11.64181,-6.637487 19.67424,-6.229738 8.75285,0.444321 14.61555,2.890298 20.32009,8.477748 l 3.03021,2.96801 1.77738,-1.72641 c 6.76098,-6.567132 12.75018,-9.258246 21.61737,-9.713297 9.11612,-0.467826 16.58337,2.169395 21.85431,7.718327 3.94335,4.15132 6.29653,9.13412 7.64369,16.18536 0.5282,2.76462 0.58086,5.17057 0.5814,26.56 6.7e-4,26.29389 0.0207,26.02185 -2.2576,30.65046 -2.1272,4.32164 -5.32993,6.00406 -10.99632,5.77647 -2.56443,-0.103 -3.39268,-0.27363 -4.89426,-1.00828 -2.83651,-1.38778 -4.65337,-3.88661 -5.872,-8.07607 -0.48688,-1.6738 -0.58179,-4.38449 -0.78935,-22.54258 -0.21628,-18.92147 -0.2891,-20.88105 -0.87463,-23.53512 -1.09658,-4.97056 -2.93091,-7.77966 -6.08902,-9.32478 -1.58661,-0.77625 -2.16648,-0.88283 -4.69812,-0.86346 -6.29906,0.0482 -9.62201,2.79466 -11.5707,9.56336 -0.48681,1.6909 -0.57722,4.34466 -0.75773,22.24 -0.2261,22.4161 -0.30537,23.36604 -2.29312,27.4795 -1.17721,2.43612 -2.76459,4.10544 -4.92005,5.174 -1.41907,0.7035 -1.99174,0.7865 -5.4265,0.7865 -3.55131,0 -3.97618,-0.0669 -5.65137,-0.88953 -3.04701,-1.49633 -4.90369,-4.09233 -6.2298,-8.71047 -0.48456,-1.68746 -0.57821,-4.41981 -0.77323,-22.56 -0.18391,-17.10545 -0.30944,-21.04207 -0.73305,-22.98786 -0.551,-2.53092 -1.71589,-5.3415 -2.76852,-6.6797 -1.90722,-2.42464 -5.6457,-3.85331 -9.06952,-3.46595 -4.45565,0.5041 -7.20797,2.34969 -8.9937,6.0308 -2.12895,4.38861 -2.19224,5.114 -2.42048,27.74271 -0.17959,17.80454 -0.27273,20.55768 -0.75239,22.24 -1.21541,4.26281 -3.09182,6.84604 -6.1095,8.41084 -1.40384,0.72796 -2.08518,0.8531 -5.13844,0.94381 -3.16363,0.094 -3.71147,0.0241 -5.41126,-0.69015 z M 714.24,180.50076 c -3.89036,-1.18768 -6.54506,-4.32424 -7.89832,-9.33196 -0.50284,-1.86076 -0.56328,-4.83492 -0.6585,-32.4047 -0.11764,-34.05943 -0.11203,-34.16703 2.00738,-38.5032 2.12098,-4.339383 5.02117,-6.020013 10.38944,-6.020579 2.73259,-2.89e-4 3.25042,0.0994 5.12092,0.985859 2.27549,1.07839 4.67581,3.263476 5.9233,5.39215 l 0.79786,1.36144 1.35896,-1.27379 c 3.57488,-3.350818 8.2191,-5.593435 13.47334,-6.506049 4.14973,-0.720772 13.36548,-0.457918 17.10734,0.48794 11.03738,2.789996 17.76999,10.464769 20.09942,22.912129 0.55069,2.9426 0.59886,5.09191 0.59886,26.72 0,21.78762 -0.0438,23.70856 -0.59448,26.08 -1.13548,4.88973 -3.06904,7.79625 -6.21376,9.3405 -1.69891,0.83426 -2.11025,0.8995 -5.67176,0.8995 -3.56151,0 -3.97285,-0.0652 -5.67176,-0.8995 -3.09594,-1.5203 -5.03922,-4.40006 -6.19504,-9.1805 -0.51696,-2.13814 -0.60193,-4.63456 -0.77878,-22.88 -0.18932,-19.533 -0.22981,-20.59326 -0.87552,-22.92932 -1.35421,-4.89926 -3.41323,-7.52969 -6.98488,-8.92329 -2.71728,-1.06025 -8.12253,-1.08188 -10.74109,-0.043 -2.60623,1.034 -4.52513,2.86352 -5.86993,5.5965 -2.13155,4.33187 -2.15035,4.54555 -2.39817,27.2591 -0.24588,22.53614 -0.25263,22.6138 -2.29777,26.45089 -2.13376,4.00334 -5.25485,5.72848 -10.27906,5.6816 -1.6214,-0.0151 -3.308,-0.1374 -3.748,-0.27173 z M 29.76,156.75953 C 20.029731,154.72695 11.081602,148.37422 5.7365302,139.70406 3.8085566,136.57672 2.429129,133.30891 1.3462284,129.30361 0.58489617,126.48768 0.51793164,125.72258 0.51793164,119.84 c 0,-5.92276 0.0633592,-6.63473 0.84968136,-9.54791 1.0148097,-3.75967 3.4143762,-8.91565 5.663353,-12.168911 C 9.0099929,95.260416 13.171959,91.065513 16,89.083167 18.724299,87.173541 23.065908,84.994005 26.152843,83.986328 31.232808,82.32806 32.681452,82.242677 55.76,82.241287 L 77.12,82.24 v 37.6 37.6 L 54.96,157.4173 C 34.142849,157.396 32.615783,157.3561 29.76,156.75955 Z M 121.28,84 c 18.74338,-18.744 34.11513,-34.08 34.15944,-34.08 0.0443,0 0.0806,15.336 0.0806,34.08 v 34.08 H 121.36056 87.201127 Z m 40.71868,-3.425474 0.0813,-37.505474 2.63586,-2.271036 c 4.28392,-3.690993 8.6678,-5.999878 14.42438,-7.596991 2.06558,-0.573076 3.35717,-0.68483 8.05976,-0.697367 5.16097,-0.01376 5.85087,0.05456 8.8,0.871382 11.11824,3.07944 20.0906,11.442047 23.72183,22.109726 2.35007,6.903914 2.31095,15.67057 -0.0999,22.387101 -2.48395,6.920239 -3.35021,7.986332 -20.38539,25.088133 l -15.0611,15.12 H 173.04641 161.91736 Z M 81.62355,76.96 C 81.618556,55.71765 81.749451,36.844235 81.916503,34.72 82.655778,25.319361 85.957703,18.124634 92.64,11.354043 99.295978,4.6101181 106.30306,1.2430706 115.72573,0.26087038 122.80913,-0.4774881 129.64034,0.77098821 136.22727,4.0077447 148.57357,10.074599 156.40024,21.936445 157.01966,35.52 l 0.18241,4 -37.78475,37.92 -37.784741,37.92 z"
         id="path6" />
      <path
         style="display:inline;fill:#cddb26"
         d="m 115.03345,240.33774 c -10.19832,-1.17808 -19.707399,-6.65593 -25.832425,-14.88117 -2.461022,-3.30489 -5.131577,-8.79134 -6.23852,-12.81657 l -0.880003,-3.2 -0.0886,-41.44 -0.0886,-41.44 3.28735,3.2225 c 1.808043,1.77237 18.695348,18.47637 37.527348,37.12 l 34.24,33.8975 0.1014,1.76 c 0.0558,0.968 -0.0628,3.18441 -0.26352,4.92536 -1.42845,12.39074 -9.08601,23.40105 -20.15788,28.98374 -5.17354,2.60862 -9.71194,3.75482 -15.79994,3.99039 -1.95803,0.0758 -4.57101,0.021 -5.80661,-0.12175 z m 64.3667,-32.51498 c -5.91903,-1.17609 -11.75459,-4.0143 -15.88015,-7.72353 l -1.6,-1.43854 V 161.57035 124.48 h 11.29418 11.29418 l 14.548,14.64 c 15.94095,16.04175 16.45269,16.66283 18.72237,22.72258 1.70701,4.55751 2.18125,7.3146 2.15995,12.55742 -0.0158,3.897 -0.14811,5.13057 -0.82603,7.70361 -1.72547,6.54897 -4.60618,11.65135 -9.10458,16.12626 -5.22143,5.19416 -10.99601,8.26093 -18.08819,9.60629 -3.1277,0.59332 -9.50058,0.58649 -12.51973,-0.0134 z M 121.6,158.24 87.841137,124.48 H 121.68057 155.52 v 33.76 c 0,18.568 -0.0363,33.76 -0.0806,33.76 -0.0443,0 -15.27206,-15.192 -33.83943,-33.76 z m 295.04,23.48588 c -14.3768,-1.62389 -26.6317,-10.29131 -33.20676,-23.48588 -3.03113,-6.08277 -4.35524,-12.37838 -4.34105,-20.64 0.0179,-10.42965 2.22715,-18.41158 7.18859,-25.97226 5.79854,-8.83634 15.19401,-15.528507 24.81004,-17.67158 7.89015,-1.758435 17.7284,-1.150588 24.86703,1.536385 10.34374,3.893373 19.23091,12.839075 23.16788,23.320475 1.93964,5.16391 2.42853,8.01561 2.45273,14.30698 l 0.0215,5.6 -0.99796,1.76 c -1.13625,2.00388 -2.67471,2.98312 -5.52572,3.51714 -1.06328,0.19916 -11.02465,0.32286 -26,0.32286 H 404.8 l 0.003,0.88 c 0.0105,2.66303 2.27401,7.13498 4.78496,9.45344 3.58119,3.30665 7.6598,4.74264 13.61158,4.79235 5.5036,0.046 9.0678,-0.90161 17.76,-4.72167 7.11084,-3.12507 8.30161,-3.49201 10.49549,-3.23416 3.50592,0.41205 6.16238,2.21465 7.60301,5.1592 0.7635,1.56054 0.83351,2.00939 0.73282,4.69811 -0.0931,2.48592 -0.26154,3.27866 -1.02865,4.84093 -3.0589,6.22963 -13.08658,12.34385 -23.95995,14.60921 -5.669,1.18108 -12.73047,1.54206 -18.16272,0.92847 z m 20.8,-54.13865 c 0,-1.11101 -0.88027,-4.25645 -1.56902,-5.6065 -0.91914,-1.80167 -2.93273,-4.10324 -4.86631,-5.56229 -3.06845,-2.31541 -5.82807,-3.1856 -10.04467,-3.16739 -4.56523,0.0197 -8.10847,1.51122 -11.3931,4.79585 -2.14698,2.14698 -3.40784,4.21303 -4.48919,7.356 -1.11421,3.23854 -2.86431,2.9171 15.88229,2.9171 h 16.48 z m 211.68,54.26837 c -7.24497,-0.66118 -14.04798,-3.04152 -20.07266,-7.02333 -3.01872,-1.99512 -9.26146,-8.24868 -11.2927,-11.31227 -3.34875,-5.05072 -5.57256,-10.56946 -6.76968,-16.8 -0.85594,-4.45485 -0.78118,-14.23926 0.1443,-18.88756 3.3475,-16.81295 14.99602,-29.715566 30.34169,-33.608314 8.76739,-2.224032 19.56825,-1.476736 27.36286,1.8932 4.5992,1.988423 7.80012,4.223784 11.9749,8.362674 6.41393,6.35879 9.78254,12.46998 11.55356,20.96 0.71511,3.42812 0.8206,12.01015 0.17023,13.84813 -0.88466,2.50008 -2.8087,3.98156 -6.06825,4.67244 -1.16933,0.24785 -9.23475,0.35943 -25.98112,0.35943 -13.35695,0 -24.35063,0.108 -24.4304,0.24 -0.31069,0.51409 1.12746,5.10887 2.11056,6.7431 2.00748,3.33708 5.58809,6.0621 9.48447,7.21815 6.54507,1.94191 13.40876,1.09441 22.11224,-2.73032 9.84388,-4.32588 9.57896,-4.23371 12.19895,-4.24434 2.08939,-0.008 2.70725,0.12732 4.31087,0.94744 2.15908,1.1042 4.01541,3.30166 4.62334,5.47296 0.63574,2.27065 0.25937,6.01107 -0.83244,8.27301 -2.23094,4.62187 -9.38812,9.89586 -17.27346,12.72848 -6.42506,2.30804 -16.51944,3.53943 -23.66726,2.88712 z m 19.55484,-53.99101 c 0.25658,-0.66862 -0.69054,-4.0811 -1.66809,-6.01021 -1.82006,-3.5917 -6.16093,-7.06348 -10.16464,-8.12954 -2.24867,-0.59875 -6.72787,-0.56295 -8.86403,0.0708 -3.84868,1.1419 -7.42802,3.81373 -9.56002,7.13617 -1.12509,1.75329 -2.57806,5.47043 -2.57806,6.59544 v 0.7927 h 16.33004 c 13.82856,0 16.35682,-0.0698 16.5048,-0.45541 z m 247.66823,53.86295 c -18.2984,-1.92823 -33.10832,-15.75591 -36.88767,-34.44117 -0.88467,-4.37383 -0.79285,-15.73202 0.16287,-20.14666 3.82995,-17.69127 16.64891,-30.59573 33.35424,-33.576705 4.04212,-0.721294 11.60413,-0.72289 15.63586,-0.0033 8.37006,1.493904 15.68892,5.491263 21.72037,11.863075 7.40792,7.82596 10.99641,16.85104 11.07638,27.85722 0.0343,4.72542 0.02,4.82983 -0.92512,6.72 -1.00049,2.00098 -2.17631,3.03005 -4.28236,3.74788 -0.86875,0.29611 -7.4247,0.41908 -26.27106,0.49277 -13.81239,0.054 -25.23689,0.22166 -25.38779,0.37256 -0.41725,0.41725 0.61981,4.02944 1.7839,6.2135 2.54475,4.77443 7.41437,7.74997 13.9921,8.54975 5.63738,0.68544 10.89362,-0.48044 19.5977,-4.34694 7.44487,-3.30713 8.94219,-3.78113 11.20871,-3.54825 3.35401,0.3446 6.40152,2.44034 7.72898,5.31514 0.51894,1.12383 0.66694,2.083 0.6682,4.33032 10e-4,2.6325 -0.0933,3.0795 -1.07596,5.0756 -3.11998,6.33759 -13.03315,12.35914 -24.02173,14.59152 -5.84985,1.18841 -12.43344,1.52845 -18.07762,0.93369 z m 20.77666,-53.7271 c 0.28723,-0.46475 -0.68551,-4.0513 -1.62241,-5.98194 -1.72368,-3.55195 -5.68666,-6.87353 -9.66795,-8.10322 -2.29621,-0.70923 -6.60381,-0.84662 -9.02937,-0.28799 -4.1789,0.96245 -8.4942,4.40915 -10.62532,8.48664 -1.23183,2.35687 -2.27548,5.46408 -1.99027,5.92556 0.24882,0.40261 32.68613,0.36415 32.93532,-0.0391 z M 991.2,181.85954 c -11.1779,-1.45038 -19.83206,-6.17979 -22.96933,-12.55249 -0.98011,-1.99089 -1.03067,-2.27445 -1.03067,-5.78032 0,-3.44275 0.0621,-3.80935 0.93827,-5.53968 1.05028,-2.07418 3.14145,-4.17646 4.92105,-4.94721 1.74544,-0.75595 5.19265,-0.67089 8.02079,0.19792 1.29807,0.39877 4.39407,1.63175 6.88,2.73997 6.73509,3.00248 8.50532,3.53594 11.74498,3.53936 2.49591,0.003 2.88541,-0.0842 4.29101,-0.95709 1.8921,-1.17492 2.8851,-2.88039 2.5908,-4.44934 -0.4361,-2.32431 -4.371,-5.01749 -11.7751,-8.05928 -5.73071,-2.35431 -12.02069,-5.48179 -15.1318,-7.52379 -5.4691,-3.58967 -8.82885,-8.12707 -9.95971,-13.45076 -0.71469,-3.36448 -0.45334,-9.86457 0.51934,-12.91683 3.02894,-9.50475 11.20107,-16.306228 22.56037,-18.77649 2.60054,-0.565529 13.0102,-0.555961 16.16,0.01485 8.9647,1.624605 16.5987,6.174678 19.5593,11.65797 0.9988,1.8498 1.0714,2.18882 1.0759,5.02367 0,2.6821 -0.1,3.25326 -0.8847,4.85137 -2.167,4.41275 -6.8557,6.50626 -11.7621,5.25186 -1.1376,-0.29085 -4.189,-1.38562 -6.7809,-2.43283 -7.9951,-3.23026 -11.16399,-3.81346 -13.92089,-2.56198 -1.47132,0.6679 -2.64422,2.23441 -2.64422,3.53158 0,1.69527 2.04541,3.85427 5.17837,5.46596 0.64942,0.33408 3.52944,1.55149 6.40004,2.70535 14.0537,5.64907 21.1434,10.56906 24.2193,16.80727 1.856,3.76403 2.3884,6.55073 2.1668,11.34142 -0.1893,4.09181 -0.6613,6.29544 -1.996,9.31786 -2.6144,5.9204 -8.4713,11.58801 -15.004,14.51903 -5.2477,2.35448 -9.9936,3.22034 -17.2869,3.15388 -2.816,-0.0257 -5.552,-0.10272 -6.08,-0.17123 z m -693.15754,-1.02366 c -3.26207,-0.84264 -5.63188,-2.90471 -7.20735,-6.27143 -1.95174,-4.17076 -1.89944,-2.64023 -1.79364,-52.49569 0.0876,-41.286754 0.14493,-45.585409 0.62855,-47.146852 1.91686,-6.188795 5.08108,-8.993181 10.7406,-9.519177 5.49496,-0.510703 9.8329,1.79792 12.00357,6.388226 1.82999,3.869854 1.93832,5.040815 2.12956,23.018274 L 314.72,111.37846 332.31662,91.48654 c 9.67814,-10.940557 18.46214,-20.663446 19.52,-21.606421 5.06382,-4.513884 10.23015,-5.342557 14.81863,-2.376885 3.39583,2.194835 5.19737,5.277909 5.43585,9.302679 0.17252,2.91161 -0.72826,5.876094 -2.67806,8.813596 -1.36356,2.054293 -1.56131,2.267064 -19.25686,20.719311 l -12.24381,12.76739 1.68381,1.81976 c 9.89855,10.69766 33.44501,36.41622 34.41204,37.58646 3.30857,4.00383 5.08978,8.46417 4.76576,11.93401 -0.25923,2.77599 -1.12212,4.57121 -3.28926,6.84324 -2.31584,2.42791 -4.5361,3.54507 -7.46153,3.75438 -4.19702,0.3003 -7.11248,-1.04154 -11.38607,-5.2404 -1.23358,-1.21201 -11.16958,-12.06312 -22.08,-24.11356 L 314.72,129.7802 l -0.18912,19.3499 c -0.20419,20.8923 -0.26113,21.61048 -2.01746,25.44681 -1.07317,2.34411 -3.35619,4.70902 -5.40502,5.5989 -1.28602,0.55856 -2.4018,0.74677 -4.8684,0.82119 -1.76,0.0531 -3.64889,-0.0194 -4.19754,-0.16112 z m 510.70393,-0.29032 c -4.21811,-1.50333 -6.57996,-4.9324 -7.66822,-11.13312 -0.3818,-2.17544 -0.43847,-10.30468 -0.35582,-51.04 0.10727,-52.863625 -0.0167,-49.246501 1.83531,-53.566983 0.86643,-2.021298 3.22309,-4.43084 5.21394,-5.330936 1.42847,-0.645838 2.17557,-0.754329 5.19513,-0.754418 3.33999,-9.8e-5 3.63979,0.05556 5.66196,1.051066 2.37804,1.170708 3.6458,2.538379 4.90747,5.294211 1.85569,4.053368 1.8447,3.875958 1.97846,31.947336 l 0.12299,25.812714 11.6421,-12.05271 c 6.40315,-6.629 12.3438,-12.587702 13.20143,-13.241569 0.85764,-0.653867 2.55575,-1.65512 3.77357,-2.225008 2.98126,-1.395102 6.74178,-1.63575 9.47236,-0.606169 2.31923,0.874483 4.47815,2.783499 5.52608,4.88642 1.06494,2.137056 1.14014,5.454796 0.18543,8.181596 -1.28218,3.66215 -3.12506,5.77321 -13.01465,14.90861 l -9.33982,8.62753 2.74257,3.22794 c 23.14037,27.23566 23.20738,27.31947 24.45905,30.58793 0.94392,2.46484 1.1898,7.36278 0.45784,9.12 -1.93517,4.64574 -6.24026,7.11264 -11.89464,6.81586 -2.23761,-0.11744 -3.01463,-0.3195 -4.99783,-1.29965 -1.29157,-0.63833 -3.17298,-1.92461 -4.18092,-2.8584 -1.09907,-1.01821 -7.07228,-8.72232 -14.92265,-19.24687 l -13.09003,-17.54906 -0.14553,14.02906 c -0.15953,15.3786 -0.31533,16.87348 -2.1642,20.76563 -1.17458,2.47268 -2.83627,4.17622 -5.08646,5.21455 -2.4009,1.10788 -7.03206,1.31933 -9.51492,0.43444 z m -326.4408,-0.33416 c -4.58531,-1.63129 -6.99892,-5.69486 -7.75472,-13.0559 -0.24501,-2.3863 -0.31638,-12.45112 -0.22772,-32.1155 0.11476,-25.45456 0.18895,-28.88499 0.66701,-30.84269 0.82299,-3.37017 2.22464,-6.015529 4.06321,-7.668557 2.09874,-1.886949 4.16534,-2.585294 7.66663,-2.590698 2.30155,-0.0036 3.01193,0.131451 4.61764,0.877559 2.60965,1.2126 4.39537,2.758074 5.99096,5.184966 l 1.35273,2.05751 1.65313,-1.56347 c 5.45233,-5.156578 13.41449,-7.438592 22.43964,-6.431365 7.97808,0.890371 14.3267,4.000952 19.13282,9.374335 l 1.81071,2.02444 2.38412,-2.29308 c 7.16767,-6.893955 15.18577,-9.871742 24.93825,-9.261645 14.32343,0.896047 23.13251,9.267475 25.6048,24.332695 0.38604,2.35235 0.47286,7.14765 0.47391,26.17349 0.001,25.66841 -0.037,26.26104 -1.96181,30.245 -1.2108,2.50613 -2.73357,4.05723 -5.04923,5.14317 -1.6095,0.75479 -2.15443,0.83739 -5.46767,0.82877 -3.23573,-0.008 -3.87153,-0.10336 -5.2665,-0.7865 -2.98446,-1.46153 -4.88991,-4.09382 -6.14131,-8.48393 -0.47915,-1.68095 -0.57491,-4.48976 -0.76907,-22.56 -0.23564,-21.92976 -0.28812,-22.67726 -1.89183,-26.94452 -0.89821,-2.39 -3.04892,-4.75942 -5.20187,-5.73084 -1.39839,-0.63095 -2.21431,-0.76247 -4.73637,-0.76345 -2.80018,-10e-4 -3.22025,0.0841 -5.18657,1.05225 -4.25314,2.09403 -6.17072,5.73855 -6.95946,13.22706 -0.17376,1.64972 -0.32345,10.7755 -0.33264,20.2795 -0.0177,18.32694 -0.13444,20.08997 -1.58359,23.91893 -0.91407,2.4152 -3.31601,5.04084 -5.52435,6.03889 -1.46247,0.66096 -2.17518,0.76218 -5.36644,0.76218 -3.38612,0 -3.82628,-0.0718 -5.51176,-0.8995 -2.0979,-1.0302 -3.74837,-2.80032 -4.91974,-5.27639 -1.75936,-3.71897 -1.80574,-4.32511 -2.0376,-26.62411 -0.20389,-19.60975 -0.2481,-20.76108 -0.88578,-23.06572 -1.37283,-4.96161 -2.78691,-7.04827 -5.76869,-8.51249 -1.60108,-0.78622 -2.20551,-0.90179 -4.71643,-0.90179 -3.98393,0 -5.8631,0.6919 -8.1848,3.0136 -1.27839,1.27839 -1.9977,2.34007 -2.51278,3.70876 -1.68865,4.48717 -1.70356,4.69142 -1.93883,26.55764 -0.18876,17.54411 -0.29623,20.76759 -0.74968,22.48613 -1.11951,4.24281 -3.21711,7.14083 -6.23852,8.61907 -2.41221,1.18018 -7.26163,1.40832 -9.9098,0.4662 z m 231.36,0 c -4.39552,-1.56377 -6.84674,-5.44904 -7.74926,-12.28283 -0.23837,-1.80487 -0.31615,-12.07759 -0.24417,-32.24857 0.10512,-29.45908 0.10901,-29.61206 0.81705,-32.13243 1.2225,-4.351662 2.93772,-6.71453 5.93055,-8.169849 3.37527,-1.641289 7.93736,-1.621373 11.22569,0.04901 1.67354,0.850112 4.10339,3.165847 5.33386,5.083359 l 1.00561,1.56712 2.11537,-1.93835 c 2.47604,-2.268837 6.62836,-4.442449 10.45971,-5.475338 2.20854,-0.595398 3.46061,-0.693811 9.12,-0.716833 5.06853,-0.02062 7.11067,0.0963 8.98205,0.51425 8.676,1.937687 14.51095,6.325451 18.21731,13.699061 1.47127,2.92703 2.30146,5.55371 3.08475,9.76 0.54652,2.93489 0.59589,5.13528 0.59589,26.56 0,25.52032 -0.0101,25.67807 -1.90289,29.81253 -1.26263,2.75794 -2.52989,4.12535 -4.90842,5.2963 -2.02286,0.99585 -2.3212,1.05117 -5.66869,1.05117 -3.34749,0 -3.64583,-0.0553 -5.66869,-1.05117 -2.37787,-1.17062 -3.64581,-2.53839 -4.90713,-5.29348 -1.70939,-3.73379 -1.79369,-4.8413 -2.05024,-26.93535 -0.25753,-22.17763 -0.27218,-22.35981 -2.10991,-26.24445 -1.04683,-2.21282 -3.64493,-4.59617 -5.92531,-5.43555 -1.36681,-0.5031 -2.52587,-0.63932 -5.41872,-0.63684 -3.37134,0.003 -3.84733,0.0802 -5.67498,0.92145 -3.55626,1.63694 -5.68287,4.57617 -6.97144,9.63539 -0.50547,1.98459 -0.59477,4.57519 -0.78313,22.72 -0.20276,19.53149 -0.24407,20.59366 -0.89181,22.9341 -1.25454,4.5329 -3.01282,6.97909 -6.10325,8.4911 -2.41221,1.18018 -7.26163,1.40832 -9.9098,0.4662 z M 30.929687,156.92902 C 13.237684,153.73256 0.31019927,138.09168 0.32188644,119.89684 0.32863651,109.38817 4.1321244,100.35822 11.667901,92.96 17.74876,86.990138 24.693359,83.615503 33.055509,82.566978 34.588328,82.374779 44.141404,82.24 56.231605,82.24 H 76.8 v 37.6 37.6 L 55.12,157.4113 C 37.90425,157.3885 32.923087,157.2892 30.929687,156.92904 Z M 121.28,84 c 18.74338,-18.744 34.11513,-34.08 34.15944,-34.08 0.0443,0 0.0806,15.336 0.0806,34.08 v 34.08 H 121.36056 87.201127 Z m 40.71868,-3.425474 0.0813,-37.505474 2.63586,-2.271036 c 4.28392,-3.690993 8.6678,-5.999878 14.42438,-7.596991 2.06558,-0.573076 3.35717,-0.68483 8.05976,-0.697367 5.16097,-0.01376 5.85087,0.05456 8.8,0.871382 11.11824,3.07944 20.0906,11.442047 23.72183,22.109726 2.35007,6.903914 2.31095,15.67057 -0.0999,22.387101 -2.48395,6.920239 -3.35021,7.986332 -20.38539,25.088133 l -15.0611,15.12 H 173.04641 161.91736 Z M 81.935403,74.361917 C 81.918548,29.849724 81.867311,31.187344 83.807728,25.482348 87.775441,13.816923 97.399052,4.7859694 109.4512,1.4180886 c 2.6016,-0.72699614 3.84122,-0.86835351 8.7888,-1.00220888 5.01984,-0.13581035 6.18331,-0.0685918 9.05422,0.52309882 11.52341,2.37496166 21.00361,9.83036846 26.13776,20.55522046 2.35586,4.921229 3.7025,10.819801 3.67693,16.105801 l -0.009,1.92 -37.57441,37.76 -37.574403,37.76 z"
         id="path5" />
      <path
         style="display:inline;fill:#2bc4d2"
         d="m 115.03345,240.33774 c -10.19832,-1.17808 -19.707399,-6.65593 -25.832425,-14.88117 -2.461022,-3.30489 -5.131577,-8.79134 -6.23852,-12.81657 l -0.880003,-3.2 -0.0886,-41.44 -0.0886,-41.44 3.28735,3.2225 c 1.808043,1.77237 18.695348,18.47637 37.527348,37.12 l 34.24,33.8975 0.1014,1.76 c 0.0558,0.968 -0.0628,3.18441 -0.26352,4.92536 -1.42845,12.39074 -9.08601,23.40105 -20.15788,28.98374 -5.17354,2.60862 -9.71194,3.75482 -15.79994,3.99039 -1.95803,0.0758 -4.57101,0.021 -5.80661,-0.12175 z M 416.64,181.72588 c -14.3768,-1.62389 -26.6317,-10.29131 -33.20676,-23.48588 -3.03113,-6.08277 -4.35524,-12.37838 -4.34105,-20.64 0.0179,-10.42965 2.22715,-18.41158 7.18859,-25.97226 5.79854,-8.83634 15.19401,-15.528507 24.81004,-17.67158 7.89015,-1.758435 17.7284,-1.150588 24.86703,1.536385 10.34374,3.893373 19.23091,12.839075 23.16788,23.320475 1.93964,5.16391 2.42853,8.01561 2.45273,14.30698 l 0.0215,5.6 -0.99796,1.76 c -1.13625,2.00388 -2.67471,2.98312 -5.52572,3.51714 -1.06328,0.19916 -11.02465,0.32286 -26,0.32286 H 404.8 l 0.003,0.88 c 0.0105,2.66303 2.27401,7.13498 4.78496,9.45344 3.58119,3.30665 7.6598,4.74264 13.61158,4.79235 5.5036,0.046 9.0678,-0.90161 17.76,-4.72167 7.11084,-3.12507 8.30161,-3.49201 10.49549,-3.23416 3.50592,0.41205 6.16238,2.21465 7.60301,5.1592 0.7635,1.56054 0.83351,2.00939 0.73282,4.69811 -0.0931,2.48592 -0.26154,3.27866 -1.02865,4.84093 -3.0589,6.22963 -13.08658,12.34385 -23.95995,14.60921 -5.669,1.18108 -12.73047,1.54206 -18.16272,0.92847 z m 20.8,-54.13865 c 0,-1.11101 -0.88027,-4.25645 -1.56902,-5.6065 -0.91914,-1.80167 -2.93273,-4.10324 -4.86631,-5.56229 -3.06845,-2.31541 -5.82807,-3.1856 -10.04467,-3.16739 -4.56523,0.0197 -8.10847,1.51122 -11.3931,4.79585 -2.14698,2.14698 -3.40784,4.21303 -4.48919,7.356 -1.11421,3.23854 -2.86431,2.9171 15.88229,2.9171 h 16.48 z m 211.68,54.26837 c -7.24497,-0.66118 -14.04798,-3.04152 -20.07266,-7.02333 -3.01872,-1.99512 -9.26146,-8.24868 -11.2927,-11.31227 -3.34875,-5.05072 -5.57256,-10.56946 -6.76968,-16.8 -0.85594,-4.45485 -0.78118,-14.23926 0.1443,-18.88756 3.3475,-16.81295 14.99602,-29.715566 30.34169,-33.608314 8.76739,-2.224032 19.56825,-1.476736 27.36286,1.8932 4.5992,1.988423 7.80012,4.223784 11.9749,8.362674 6.41393,6.35879 9.78254,12.46998 11.55356,20.96 0.71511,3.42812 0.8206,12.01015 0.17023,13.84813 -0.88466,2.50008 -2.8087,3.98156 -6.06825,4.67244 -1.16933,0.24785 -9.23475,0.35943 -25.98112,0.35943 -13.35695,0 -24.35063,0.108 -24.4304,0.24 -0.31069,0.51409 1.12746,5.10887 2.11056,6.7431 2.00748,3.33708 5.58809,6.0621 9.48447,7.21815 6.54507,1.94191 13.40876,1.09441 22.11224,-2.73032 9.84388,-4.32588 9.57896,-4.23371 12.19895,-4.24434 2.08939,-0.008 2.70725,0.12732 4.31087,0.94744 2.15908,1.1042 4.01541,3.30166 4.62334,5.47296 0.63574,2.27065 0.25937,6.01107 -0.83244,8.27301 -2.23094,4.62187 -9.38812,9.89586 -17.27346,12.72848 -6.42506,2.30804 -16.51944,3.53943 -23.66726,2.88712 z m 19.55484,-53.99101 c 0.25658,-0.66862 -0.69054,-4.0811 -1.66809,-6.01021 -1.82006,-3.5917 -6.16093,-7.06348 -10.16464,-8.12954 -2.24867,-0.59875 -6.72787,-0.56295 -8.86403,0.0708 -3.84868,1.1419 -7.42802,3.81373 -9.56002,7.13617 -1.12509,1.75329 -2.57806,5.47043 -2.57806,6.59544 v 0.7927 h 16.33004 c 13.82856,0 16.35682,-0.0698 16.5048,-0.45541 z m 247.66823,53.86295 c -18.2984,-1.92823 -33.10832,-15.75591 -36.88767,-34.44117 -0.88467,-4.37383 -0.79285,-15.73202 0.16287,-20.14666 3.82995,-17.69127 16.64891,-30.59573 33.35424,-33.576705 4.04212,-0.721294 11.60413,-0.72289 15.63586,-0.0033 8.37006,1.493904 15.68892,5.491263 21.72037,11.863075 7.40792,7.82596 10.99641,16.85104 11.07638,27.85722 0.0343,4.72542 0.02,4.82983 -0.92512,6.72 -1.00049,2.00098 -2.17631,3.03005 -4.28236,3.74788 -0.86875,0.29611 -7.4247,0.41908 -26.27106,0.49277 -13.81239,0.054 -25.23689,0.22166 -25.38779,0.37256 -0.41725,0.41725 0.61981,4.02944 1.7839,6.2135 2.54475,4.77443 7.41437,7.74997 13.9921,8.54975 5.63738,0.68544 10.89362,-0.48044 19.5977,-4.34694 7.44487,-3.30713 8.94219,-3.78113 11.20871,-3.54825 3.35401,0.3446 6.40152,2.44034 7.72898,5.31514 0.51894,1.12383 0.66694,2.083 0.6682,4.33032 10e-4,2.6325 -0.0933,3.0795 -1.07596,5.0756 -3.11998,6.33759 -13.03315,12.35914 -24.02173,14.59152 -5.84985,1.18841 -12.43344,1.52845 -18.07762,0.93369 z m 20.77666,-53.7271 c 0.28723,-0.46475 -0.68551,-4.0513 -1.62241,-5.98194 -1.72368,-3.55195 -5.68666,-6.87353 -9.66795,-8.10322 -2.29621,-0.70923 -6.60381,-0.84662 -9.02937,-0.28799 -4.1789,0.96245 -8.4942,4.40915 -10.62532,8.48664 -1.23183,2.35687 -2.27548,5.46408 -1.99027,5.92556 0.24882,0.40261 32.68613,0.36415 32.93532,-0.0391 z M 991.2,181.85954 c -11.1779,-1.45038 -19.83206,-6.17979 -22.96933,-12.55249 -0.98011,-1.99089 -1.03067,-2.27445 -1.03067,-5.78032 0,-3.44275 0.0621,-3.80935 0.93827,-5.53968 1.05028,-2.07418 3.14145,-4.17646 4.92105,-4.94721 1.74544,-0.75595 5.19265,-0.67089 8.02079,0.19792 1.29807,0.39877 4.39407,1.63175 6.88,2.73997 6.73509,3.00248 8.50532,3.53594 11.74498,3.53936 2.49591,0.003 2.88541,-0.0842 4.29101,-0.95709 1.8921,-1.17492 2.8851,-2.88039 2.5908,-4.44934 -0.4361,-2.32431 -4.371,-5.01749 -11.7751,-8.05928 -5.73071,-2.35431 -12.02069,-5.48179 -15.1318,-7.52379 -5.4691,-3.58967 -8.82885,-8.12707 -9.95971,-13.45076 -0.71469,-3.36448 -0.45334,-9.86457 0.51934,-12.91683 3.02894,-9.50475 11.20107,-16.306228 22.56037,-18.77649 2.60054,-0.565529 13.0102,-0.555961 16.16,0.01485 8.9647,1.624605 16.5987,6.174678 19.5593,11.65797 0.9988,1.8498 1.0714,2.18882 1.0759,5.02367 0,2.6821 -0.1,3.25326 -0.8847,4.85137 -2.167,4.41275 -6.8557,6.50626 -11.7621,5.25186 -1.1376,-0.29085 -4.189,-1.38562 -6.7809,-2.43283 -7.9951,-3.23026 -11.16399,-3.81346 -13.92089,-2.56198 -1.47132,0.6679 -2.64422,2.23441 -2.64422,3.53158 0,1.69527 2.04541,3.85427 5.17837,5.46596 0.64942,0.33408 3.52944,1.55149 6.40004,2.70535 14.0537,5.64907 21.1434,10.56906 24.2193,16.80727 1.856,3.76403 2.3884,6.55073 2.1668,11.34142 -0.1893,4.09181 -0.6613,6.29544 -1.996,9.31786 -2.6144,5.9204 -8.4713,11.58801 -15.004,14.51903 -5.2477,2.35448 -9.9936,3.22034 -17.2869,3.15388 -2.816,-0.0257 -5.552,-0.10272 -6.08,-0.17123 z m -693.15754,-1.02366 c -3.26207,-0.84264 -5.63188,-2.90471 -7.20735,-6.27143 -1.95174,-4.17076 -1.89944,-2.64023 -1.79364,-52.49569 0.0876,-41.286754 0.14493,-45.585409 0.62855,-47.146852 1.91686,-6.188795 5.08108,-8.993181 10.7406,-9.519177 5.49496,-0.510703 9.8329,1.79792 12.00357,6.388226 1.82999,3.869854 1.93832,5.040815 2.12956,23.018274 L 314.72,111.37846 332.31662,91.48654 c 9.67814,-10.940557 18.46214,-20.663446 19.52,-21.606421 5.06382,-4.513884 10.23015,-5.342557 14.81863,-2.376885 3.39583,2.194835 5.19737,5.277909 5.43585,9.302679 0.17252,2.91161 -0.72826,5.876094 -2.67806,8.813596 -1.36356,2.054293 -1.56131,2.267064 -19.25686,20.719311 l -12.24381,12.76739 1.68381,1.81976 c 9.89855,10.69766 33.44501,36.41622 34.41204,37.58646 3.30857,4.00383 5.08978,8.46417 4.76576,11.93401 -0.25923,2.77599 -1.12212,4.57121 -3.28926,6.84324 -2.31584,2.42791 -4.5361,3.54507 -7.46153,3.75438 -4.19702,0.3003 -7.11248,-1.04154 -11.38607,-5.2404 -1.23358,-1.21201 -11.16958,-12.06312 -22.08,-24.11356 L 314.72,129.7802 l -0.18912,19.3499 c -0.20419,20.8923 -0.26113,21.61048 -2.01746,25.44681 -1.07317,2.34411 -3.35619,4.70902 -5.40502,5.5989 -1.28602,0.55856 -2.4018,0.74677 -4.8684,0.82119 -1.76,0.0531 -3.64889,-0.0194 -4.19754,-0.16112 z m 510.70393,-0.29032 c -4.21811,-1.50333 -6.57996,-4.9324 -7.66822,-11.13312 -0.3818,-2.17544 -0.43847,-10.30468 -0.35582,-51.04 0.10727,-52.863625 -0.0167,-49.246501 1.83531,-53.566983 0.86643,-2.021298 3.22309,-4.43084 5.21394,-5.330936 1.42847,-0.645838 2.17557,-0.754329 5.19513,-0.754418 3.33999,-9.8e-5 3.63979,0.05556 5.66196,1.051066 2.37804,1.170708 3.6458,2.538379 4.90747,5.294211 1.85569,4.053368 1.8447,3.875958 1.97846,31.947336 l 0.12299,25.812714 11.6421,-12.05271 c 6.40315,-6.629 12.3438,-12.587702 13.20143,-13.241569 0.85764,-0.653867 2.55575,-1.65512 3.77357,-2.225008 2.98126,-1.395102 6.74178,-1.63575 9.47236,-0.606169 2.31923,0.874483 4.47815,2.783499 5.52608,4.88642 1.06494,2.137056 1.14014,5.454796 0.18543,8.181596 -1.28218,3.66215 -3.12506,5.77321 -13.01465,14.90861 l -9.33982,8.62753 2.74257,3.22794 c 23.14037,27.23566 23.20738,27.31947 24.45905,30.58793 0.94392,2.46484 1.1898,7.36278 0.45784,9.12 -1.93517,4.64574 -6.24026,7.11264 -11.89464,6.81586 -2.23761,-0.11744 -3.01463,-0.3195 -4.99783,-1.29965 -1.29157,-0.63833 -3.17298,-1.92461 -4.18092,-2.8584 -1.09907,-1.01821 -7.07228,-8.72232 -14.92265,-19.24687 l -13.09003,-17.54906 -0.14553,14.02906 c -0.15953,15.3786 -0.31533,16.87348 -2.1642,20.76563 -1.17458,2.47268 -2.83627,4.17622 -5.08646,5.21455 -2.4009,1.10788 -7.03206,1.31933 -9.51492,0.43444 z m -326.4408,-0.33416 c -4.58531,-1.63129 -6.99892,-5.69486 -7.75472,-13.0559 -0.24501,-2.3863 -0.31638,-12.45112 -0.22772,-32.1155 0.11476,-25.45456 0.18895,-28.88499 0.66701,-30.84269 0.82299,-3.37017 2.22464,-6.015529 4.06321,-7.668557 2.09874,-1.886949 4.16534,-2.585294 7.66663,-2.590698 2.30155,-0.0036 3.01193,0.131451 4.61764,0.877559 2.60965,1.2126 4.39537,2.758074 5.99096,5.184966 l 1.35273,2.05751 1.65313,-1.56347 c 5.45233,-5.156578 13.41449,-7.438592 22.43964,-6.431365 7.97808,0.890371 14.3267,4.000952 19.13282,9.374335 l 1.81071,2.02444 2.38412,-2.29308 c 7.16767,-6.893955 15.18577,-9.871742 24.93825,-9.261645 14.32343,0.896047 23.13251,9.267475 25.6048,24.332695 0.38604,2.35235 0.47286,7.14765 0.47391,26.17349 0.001,25.66841 -0.037,26.26104 -1.96181,30.245 -1.2108,2.50613 -2.73357,4.05723 -5.04923,5.14317 -1.6095,0.75479 -2.15443,0.83739 -5.46767,0.82877 -3.23573,-0.008 -3.87153,-0.10336 -5.2665,-0.7865 -2.98446,-1.46153 -4.88991,-4.09382 -6.14131,-8.48393 -0.47915,-1.68095 -0.57491,-4.48976 -0.76907,-22.56 -0.23564,-21.92976 -0.28812,-22.67726 -1.89183,-26.94452 -0.89821,-2.39 -3.04892,-4.75942 -5.20187,-5.73084 -1.39839,-0.63095 -2.21431,-0.76247 -4.73637,-0.76345 -2.80018,-10e-4 -3.22025,0.0841 -5.18657,1.05225 -4.25314,2.09403 -6.17072,5.73855 -6.95946,13.22706 -0.17376,1.64972 -0.32345,10.7755 -0.33264,20.2795 -0.0177,18.32694 -0.13444,20.08997 -1.58359,23.91893 -0.91407,2.4152 -3.31601,5.04084 -5.52435,6.03889 -1.46247,0.66096 -2.17518,0.76218 -5.36644,0.76218 -3.38612,0 -3.82628,-0.0718 -5.51176,-0.8995 -2.0979,-1.0302 -3.74837,-2.80032 -4.91974,-5.27639 -1.75936,-3.71897 -1.80574,-4.32511 -2.0376,-26.62411 -0.20389,-19.60975 -0.2481,-20.76108 -0.88578,-23.06572 -1.37283,-4.96161 -2.78691,-7.04827 -5.76869,-8.51249 -1.60108,-0.78622 -2.20551,-0.90179 -4.71643,-0.90179 -3.98393,0 -5.8631,0.6919 -8.1848,3.0136 -1.27839,1.27839 -1.9977,2.34007 -2.51278,3.70876 -1.68865,4.48717 -1.70356,4.69142 -1.93883,26.55764 -0.18876,17.54411 -0.29623,20.76759 -0.74968,22.48613 -1.11951,4.24281 -3.21711,7.14083 -6.23852,8.61907 -2.41221,1.18018 -7.26163,1.40832 -9.9098,0.4662 z m 231.36,0 c -4.39552,-1.56377 -6.84674,-5.44904 -7.74926,-12.28283 -0.23837,-1.80487 -0.31615,-12.07759 -0.24417,-32.24857 0.10512,-29.45908 0.10901,-29.61206 0.81705,-32.13243 1.2225,-4.351662 2.93772,-6.71453 5.93055,-8.169849 3.37527,-1.641289 7.93736,-1.621373 11.22569,0.04901 1.67354,0.850112 4.10339,3.165847 5.33386,5.083359 l 1.00561,1.56712 2.11537,-1.93835 c 2.47604,-2.268837 6.62836,-4.442449 10.45971,-5.475338 2.20854,-0.595398 3.46061,-0.693811 9.12,-0.716833 5.06853,-0.02062 7.11067,0.0963 8.98205,0.51425 8.676,1.937687 14.51095,6.325451 18.21731,13.699061 1.47127,2.92703 2.30146,5.55371 3.08475,9.76 0.54652,2.93489 0.59589,5.13528 0.59589,26.56 0,25.52032 -0.0101,25.67807 -1.90289,29.81253 -1.26263,2.75794 -2.52989,4.12535 -4.90842,5.2963 -2.02286,0.99585 -2.3212,1.05117 -5.66869,1.05117 -3.34749,0 -3.64583,-0.0553 -5.66869,-1.05117 -2.37787,-1.17062 -3.64581,-2.53839 -4.90713,-5.29348 -1.70939,-3.73379 -1.79369,-4.8413 -2.05024,-26.93535 -0.25753,-22.17763 -0.27218,-22.35981 -2.10991,-26.24445 -1.04683,-2.21282 -3.64493,-4.59617 -5.92531,-5.43555 -1.36681,-0.5031 -2.52587,-0.63932 -5.41872,-0.63684 -3.37134,0.003 -3.84733,0.0802 -5.67498,0.92145 -3.55626,1.63694 -5.68287,4.57617 -6.97144,9.63539 -0.50547,1.98459 -0.59477,4.57519 -0.78313,22.72 -0.20276,19.53149 -0.24407,20.59366 -0.89181,22.9341 -1.25454,4.5329 -3.01282,6.97909 -6.10325,8.4911 -2.41221,1.18018 -7.26163,1.40832 -9.9098,0.4662 z M 30.929687,156.92902 C 13.237684,153.73256 0.31019927,138.09168 0.32188644,119.89684 0.32863651,109.38817 4.1321244,100.35822 11.667901,92.96 17.74876,86.990138 24.693359,83.615503 33.055509,82.566978 34.588328,82.374779 44.141404,82.24 56.231605,82.24 H 76.8 v 37.6 37.6 L 55.12,157.4113 C 37.90425,157.3885 32.923087,157.2892 30.929687,156.92904 Z M 81.935403,74.361917 C 81.918548,29.849724 81.867311,31.187344 83.807728,25.482348 87.775441,13.816923 97.399052,4.7859694 109.4512,1.4180886 c 2.6016,-0.72699614 3.84122,-0.86835351 8.7888,-1.00220888 5.01984,-0.13581035 6.18331,-0.0685918 9.05422,0.52309882 11.52341,2.37496166 21.00361,9.83036846 26.13776,20.55522046 2.35586,4.921229 3.7025,10.819801 3.67693,16.105801 l -0.009,1.92 -37.57441,37.76 -37.574403,37.76 z"
         id="path4" />
      <path
         style="display:inline;fill:#04bacb"
         d="m 116.32,240.43282 c -5.69029,-0.65965 -9.97931,-1.8674 -14.05862,-3.95879 -8.626697,-4.42277 -15.349878,-12.19101 -18.456874,-21.32585 -1.944749,-5.71773 -1.896814,-4.43498 -1.806728,-48.34752 l 0.08222,-40.07933 37.520002,37.14582 37.52,37.14581 -9e-4,1.97352 c -0.007,14.47179 -8.44339,27.78226 -21.54285,33.98753 -5.69021,2.69548 -13.59417,4.11519 -19.25625,3.45881 z m 300.55508,-58.70068 c -12.32143,-1.30275 -23.1592,-7.83843 -30.35422,-18.30501 -3.47693,-5.05789 -5.69006,-10.61467 -6.90893,-17.34713 -0.73111,-4.03832 -0.70774,-13.00965 0.045,-17.28 1.23321,-6.99593 4.13831,-13.91928 7.99707,-19.05833 2.50067,-3.33037 7.31409,-7.99297 10.30136,-9.978583 7.87537,-5.234707 17.25986,-7.539589 27.03602,-6.640199 10.14481,0.933304 17.67766,4.468437 24.78624,11.632082 7.83936,7.90007 11.44795,16.22647 11.88389,27.42068 0.25928,6.65774 -0.63984,9.29038 -3.70177,10.83896 -2.45985,1.24406 -3.8146,1.30539 -28.83662,1.30539 -13.35695,0 -24.35063,0.108 -24.4304,0.24 -0.27925,0.46208 1.07078,4.9898 1.92261,6.44804 2.24806,3.8484 6.16545,6.67469 10.98466,7.92513 3.27245,0.8491 9.27206,0.70955 13.14704,-0.30579 2.97887,-0.78054 4.319,-1.303 13.41296,-5.22916 3.95617,-1.70801 4.50865,-1.86288 6.56,-1.83886 2.71435,0.0318 4.71057,0.83121 6.47071,2.59135 2.04321,2.04321 2.48977,3.29506 2.48607,6.96929 -0.003,2.82798 -0.10393,3.40461 -0.86941,4.96 -3.12891,6.35767 -13.19873,12.47347 -24.22668,14.71385 -5.81419,1.18117 -12.20516,1.51985 -17.70561,0.93829 z M 437.44,127.39371 c 0,-1.41999 -1.15124,-4.82697 -2.17771,-6.44471 -3.19039,-5.02811 -7.97087,-7.69015 -13.82667,-7.69946 -3.27147,-0.005 -5.23149,0.39603 -7.62685,1.56128 -2.14526,1.04358 -5.37742,3.98095 -6.77221,6.15454 -1.09221,1.70207 -2.53886,5.46625 -2.54981,6.63464 l -0.007,0.72 h 16.48 16.48 z m 212,54.49518 c -10.65352,-1.08424 -19.0816,-4.97324 -26.26582,-12.11992 -5.15961,-5.13265 -8.53669,-10.58886 -10.65662,-17.21743 -1.64521,-5.14426 -2.08694,-8.30892 -2.08694,-14.95154 0,-6.37277 0.38316,-9.32088 1.89231,-14.56 2.86226,-9.93649 10.37732,-19.55555 19.39089,-24.81975 8.26354,-4.82617 19.7564,-6.484351 29.95828,-4.322359 13.56353,2.874397 25.12431,13.496399 29.46556,27.072829 1.73861,5.4372 2.48263,13.30501 1.63287,17.26729 -0.5129,2.39158 -1.9916,4.15102 -4.30471,5.12199 l -1.90582,0.8 -25.11521,0.0912 c -13.81336,0.0502 -25.21647,0.19416 -25.34023,0.32 -0.38904,0.39554 0.39308,3.33675 1.51704,5.70494 3.27164,6.89339 11.58768,10.40732 21.19221,8.95473 4.05061,-0.61261 7.56346,-1.77114 13.18376,-4.34795 2.37466,-1.08874 5.39866,-2.3463 6.72,-2.79458 2.15923,-0.73255 2.60032,-0.78196 4.35727,-0.48815 3.47825,0.58167 5.72895,2.1264 7.2389,4.9683 0.59791,1.12533 0.71877,1.86106 0.72217,4.39636 0.004,2.82288 -0.0758,3.20779 -1.09187,5.28 -1.83797,3.7484 -6.37915,7.64758 -12.46152,10.69977 -3.16558,1.58851 -9.14471,3.46111 -13.3447,4.17941 -3.65653,0.62536 -11.8692,1.05273 -14.69782,0.76485 z M 668.79218,127.6 c -0.0251,-2.31356 -1.60865,-6.13597 -3.54944,-8.56791 -1.55534,-1.94894 -5.14514,-4.36668 -7.61964,-5.13184 -3.09111,-0.95583 -7.60367,-0.89952 -10.5695,0.13189 -4.22131,1.46803 -7.91972,4.83409 -9.73508,8.86024 -0.9682,2.14731 -1.81324,4.98624 -1.55968,5.2398 0.10331,0.1033 7.57983,0.18782 16.61449,0.18782 H 668.8 Z M 916.32,181.70785 c -9.97849,-1.12429 -18.55828,-5.42641 -25.68136,-12.87728 -7.78621,-8.14451 -11.42006,-17.20491 -11.81978,-29.47057 -0.41584,-12.7605 2.7834,-22.72105 10.16114,-31.63583 6.35701,-7.68139 14.42677,-12.429262 24.0573,-14.154197 4.02368,-0.720688 11.63018,-0.719613 15.40238,0.0022 8.51411,1.629128 15.13233,5.133708 21.17585,11.213367 7.68641,7.73237 11.72117,17.4831 11.79075,28.49448 0.028,4.42676 -0.2824,6.06737 -1.4856,7.8527 -0.86823,1.2883 -2.98261,2.42581 -5.32436,2.86444 -1.06339,0.19918 -11.03386,0.32286 -26.02812,0.32286 h -24.30445 l 0.22676,1.3422 c 1.87309,11.08674 12.98166,16.35518 26.83454,12.72676 1.37323,-0.35968 4.31888,-1.45649 6.54587,-2.43734 9.15254,-4.03113 10.29361,-4.43202 12.52908,-4.40181 6.6486,0.0899 10.77297,6.17048 8.69672,12.82168 -0.759,2.43146 -1.87684,4.16178 -4.10575,6.35536 -8.16494,8.03552 -24.25705,12.60504 -38.67097,10.981 z M 937.27527,127.92 c -0.0144,-1.21785 -1.10245,-4.74656 -1.95922,-6.35401 -1.85048,-3.47186 -6.22788,-6.89747 -10.17051,-7.95911 -2.23743,-0.60248 -6.90543,-0.45953 -9.30554,0.28496 -5.79608,1.7979 -10.28238,6.94591 -11.66728,13.38816 l -0.22357,1.04 h 16.66542 c 13.12153,0 16.66442,-0.0851 16.6607,-0.4 z m 52.35657,53.67494 c -11.56837,-1.87871 -19.84966,-7.19317 -22.11211,-14.19027 -0.80604,-2.49286 -0.56235,-6.64222 0.5297,-9.01927 2.9528,-6.42731 8.24008,-7.48101 17.3486,-3.45742 8.93604,3.9474 11.397,4.75405 14.48816,4.74889 4.64911,-0.008 8.00671,-3.52916 6.33131,-6.64018 -1.0918,-2.02733 -5.2272,-4.53474 -12.07425,-7.32088 -8.83731,-3.59602 -15.86082,-7.64935 -19.25525,-11.11237 -3.68389,-3.75834 -5.608,-8.83407 -5.608,-14.79371 0,-7.23155 2.29458,-12.88443 7.24546,-17.84974 6.52038,-6.539399 15.03292,-9.504825 26.00774,-9.060061 9.8283,0.398297 17.4215,3.136498 22.8942,8.255891 4.6491,4.34902 5.6581,10.20404 2.5678,14.90002 -1.3475,2.04764 -3.3096,3.43085 -5.8806,4.14566 -2.7501,0.7646 -4.9287,0.30999 -11.8256,-2.46774 -6.0289,-2.42812 -8.6151,-3.16556 -11.089,-3.162 -3.13705,0.005 -5.59598,1.93136 -5.5988,4.38732 -0.002,1.3896 1.72535,3.28246 4.3171,4.73185 1.09174,0.61053 4.4187,2.09843 7.3933,3.30644 15.9718,6.48625 22.9384,11.96222 25.4987,20.04263 1.0277,3.24353 1.0196,10.10477 -0.016,13.69328 -2.8401,9.84051 -11.2574,17.41912 -22.4877,20.24706 -2.9148,0.73399 -4.1517,0.85784 -9.5866,0.95993 -4.42017,0.083 -7.07064,-0.0177 -9.08816,-0.34533 z m -691.94031,-0.93918 c -4.09492,-1.27976 -6.43906,-3.92305 -7.97541,-8.99318 -0.5416,-1.78736 -0.58241,-4.64397 -0.67381,-47.17121 -0.10481,-48.762656 -0.14117,-47.534716 1.54045,-52.01137 0.98993,-2.635298 3.90609,-5.572096 6.37724,-6.422379 2.5529,-0.87841 7.20546,-0.805794 9.67071,0.150938 3.49639,1.3569 5.99172,4.768416 7.18239,9.81946 0.43131,1.829733 0.55473,5.081992 0.71416,18.820075 L 314.72,111.45619 332.71495,91.119665 c 10.95317,-12.378441 18.79947,-20.976695 20.05085,-21.972453 3.04826,-2.425571 5.25544,-3.338057 8.01946,-3.315379 3.93287,0.03227 7.12944,1.802122 9.40234,5.205818 3.12841,4.68482 2.43854,10.496598 -1.90317,16.033342 -0.77244,0.985047 -7.93344,8.586204 -15.91335,16.891457 l -14.50892,15.10047 2.38977,2.62854 c 1.31438,1.4457 9.47471,10.33254 18.13407,19.74854 8.65937,9.416 16.40652,18.11377 17.21589,19.32838 2.32461,3.48849 3.10168,5.65501 3.11029,8.67162 0.006,2.11742 -0.14091,2.87633 -0.85005,4.38978 -1.13405,2.42029 -3.33055,4.71608 -5.78629,6.04785 -1.87024,1.01425 -2.18715,1.08229 -5.03584,1.08103 -2.69813,-0.001 -3.25127,-0.10482 -4.91863,-0.92152 -2.89924,-1.42007 -6.55545,-5.19243 -27.88137,-28.76709 l -19.52,-21.57831 -0.17262,19.23413 c -0.15355,17.10967 -0.2368,19.49922 -0.75369,21.63413 -1.33946,5.53239 -3.8192,8.69385 -7.77833,9.9167 -2.41612,0.74626 -6.24535,0.82863 -8.32383,0.17906 z m 511.44527,-0.0482 c -4.42059,-1.40677 -6.9145,-4.89785 -8.01757,-11.22331 -0.73139,-4.19411 -0.71802,-95.286241 0.0146,-99.502373 0.92128,-5.3018 3.20669,-8.813646 6.80996,-10.464408 1.23705,-0.56673 2.10592,-0.686505 5.01621,-0.691485 3.02086,-0.0052 3.75658,0.100953 5.1884,0.748394 2.06487,0.933688 4.36457,3.33782 5.37211,5.616052 1.85324,4.190501 1.85514,4.220072 2.05525,32.085661 l 0.18424,25.656129 11.2,-11.65387 c 6.16,-6.40963 11.992,-12.307745 12.96,-13.106919 0.968,-0.799174 2.80839,-1.976258 4.08975,-2.615741 5.80308,-2.896114 12.48924,-1.104577 15.20479,4.074078 0.83861,1.599272 0.90846,1.984742 0.81003,4.470192 -0.0901,2.27413 -0.27976,3.08387 -1.15729,4.93976 -0.57727,1.22086 -1.58456,2.92409 -2.23843,3.78495 -0.65387,0.86085 -5.32804,5.38433 -10.38706,10.05216 l -9.19821,8.48698 0.71821,0.89557 c 0.39502,0.49257 5.81234,6.89695 12.03851,14.23196 11.96099,14.09119 13.42903,16.00649 14.53354,18.96148 0.94275,2.52223 1.00643,8.01621 0.11193,9.65745 -1.07463,1.97174 -3.32894,4.06667 -5.41079,5.02824 -1.79921,0.83103 -2.32637,0.92145 -5.37195,0.92145 -3.26104,0 -3.46083,-0.0414 -5.81959,-1.20739 -1.54838,-0.76537 -3.1237,-1.87994 -4.30303,-3.04449 -1.02322,-1.0104 -7.69241,-9.63712 -14.82041,-19.17048 l -12.96,-17.33339 -0.19031,13.81788 c -0.19605,14.2353 -0.33558,15.87838 -1.64739,19.39982 -1.272,3.41456 -3.16256,5.57627 -5.98604,6.84458 -1.94624,0.87426 -6.56183,1.05316 -8.79946,0.34107 z m -326.44733,-0.3205 c -2.67391,-0.82248 -4.58629,-2.50417 -5.97795,-5.25679 -2.33183,-4.61224 -2.25941,-3.53714 -2.39184,-35.51031 -0.12686,-30.62909 -0.0341,-33.11878 1.39399,-37.39721 1.30346,-3.905148 2.91203,-5.844637 6.04727,-7.291305 1.6447,-0.758899 2.33388,-0.886313 4.82056,-0.891218 2.61917,-0.0052 3.10181,0.09306 4.96,1.009401 2.3803,1.173815 4.3216,2.932039 5.95714,5.395342 l 1.15313,1.73673 1.47411,-1.37415 c 4.1942,-3.90979 8.81251,-5.934667 15.1664,-6.649637 10.2974,-1.158714 20.47891,2.460784 26.68564,9.486677 l 1.80699,2.04548 2.82837,-2.72656 c 5.94706,-5.732978 11.68998,-8.288391 20.10672,-8.946829 1.53169,-0.119824 4.18611,-0.05007 6.07589,0.159658 12.37311,1.373189 20.24603,8.669381 23.44708,21.729471 0.6507,2.65483 0.67922,3.62937 0.79103,27.02298 0.12443,26.03218 0.0887,26.76776 -1.50735,31.0101 -0.90829,2.41428 -3.30754,5.03892 -5.52021,6.03879 -1.4481,0.65437 -2.18392,0.76207 -5.20644,0.76207 -3.01263,0 -3.76048,-0.10872 -5.1884,-0.75431 -2.01507,-0.91105 -4.35012,-3.31573 -5.24347,-5.39984 -1.63827,-3.82191 -1.65338,-4.02932 -1.89504,-26.00564 -0.24487,-22.26769 -0.30665,-23.07645 -2.06671,-27.05626 -0.96376,-2.17923 -2.98811,-4.36851 -4.90098,-5.30025 -2.02683,-0.98726 -6.72229,-1.06378 -9.34224,-0.15225 -2.44211,0.84966 -5.08269,3.51218 -6.06074,6.11112 -1.67788,4.45855 -1.6952,4.69757 -1.93589,26.71764 -0.19933,18.23615 -0.29045,20.86158 -0.78239,22.54258 -1.23861,4.23247 -3.24815,6.95202 -6.21277,8.40789 -1.64742,0.80902 -2.12998,0.88953 -5.33137,0.88953 -3.12101,0 -3.71949,-0.0939 -5.28,-0.82885 -0.968,-0.45587 -2.20399,-1.20447 -2.74665,-1.66356 -1.32315,-1.11938 -2.87688,-4.11438 -3.71811,-7.16713 -0.66046,-2.39674 -0.69794,-3.35663 -0.90366,-23.14046 -0.18051,-17.36047 -0.29683,-20.98752 -0.73206,-22.82713 -1.0929,-4.61943 -3.0967,-7.55784 -6.06219,-8.88966 -2.17614,-0.97731 -6.56414,-1.06356 -9.10781,-0.179 -2.28488,0.79455 -4.63741,2.98393 -5.8418,5.43665 -1.95803,3.98748 -1.99651,4.45343 -2.23802,27.09914 -0.21347,20.01507 -0.24148,20.71123 -0.92511,22.99272 -1.34637,4.49327 -3.05643,6.81569 -6.07295,8.24761 -2.29789,1.09078 -6.92352,1.36611 -9.52217,0.56677 z m 231.99299,0.20924 c -3.13207,-0.74772 -5.68401,-2.92441 -7.05012,-6.01341 -1.89243,-4.27912 -1.82644,-3.09989 -1.95644,-34.96293 -0.0849,-20.81858 -0.013,-30.14365 0.24905,-32.26858 1.09647,-8.892089 4.74505,-12.888436 11.83505,-12.963123 4.64548,-0.04894 7.65881,1.530627 10.71191,5.615093 l 1.5919,2.12967 1.4481,-1.34982 c 3.13516,-2.922384 6.41008,-4.697365 10.85962,-5.885834 2.76828,-0.739403 3.67894,-0.822413 9.30847,-0.848495 4.91637,-0.02278 6.81697,0.09492 8.96,0.554861 10.48526,2.250371 17.27351,8.662128 20.29182,19.166378 1.55264,5.40347 1.62818,6.84035 1.62818,30.96985 0,20.50117 -0.0524,22.8031 -0.57456,25.22381 -0.7712,3.57541 -1.80496,5.79961 -3.57513,7.69207 -2.27073,2.42758 -4.04361,3.08391 -8.33031,3.08391 -3.01263,0 -3.76048,-0.10872 -5.1884,-0.75431 -2.0653,-0.93376 -4.36457,-3.33772 -5.37274,-5.61737 -1.77323,-4.00959 -1.85505,-5.08038 -2.08039,-27.22811 -0.20218,-19.87105 -0.22934,-20.54996 -0.91361,-22.83272 -0.9611,-3.20628 -1.76159,-4.6736 -3.43913,-6.30398 -1.92091,-1.86691 -4.29507,-2.73475 -8.05778,-2.94539 -7.37965,-0.41312 -11.53115,2.67564 -13.58581,10.10799 -0.64703,2.34048 -0.68832,3.40971 -0.89195,23.0941 -0.17953,17.35446 -0.29446,20.94563 -0.72197,22.56 -1.45849,5.50744 -3.80629,8.35221 -7.89529,9.56651 -1.77353,0.52669 -5.47457,0.6338 -7.25047,0.20983 z M 31.04,156.94593 C 19.457884,154.83874 9.3917119,147.19241 4.1599555,136.52767 0.69479321,129.46407 -0.42328562,121.91625 0.79663173,113.82289 3.2399417,97.613096 16.53452,84.69495 32.96,82.570215 34.287379,82.39851 44.620295,82.255344 56.08,82.24988 L 76.8,82.24 v 37.6 37.6 L 55.12,157.4113 C 38.293583,157.389 32.902703,157.28482 31.04,156.94593 Z M 81.921056,74.536389 C 81.919892,29.897391 81.872373,31.07155 83.914508,25.28 c 2.012573,-5.707712 4.817204,-10.104838 9.184793,-14.4 4.644501,-4.567483 10.401409,-7.8677215 16.571949,-9.500133 4.19706,-1.11032959 12.51674,-1.40840836 16.81671,-0.60251211 7.89219,1.47914351 14.36059,5.00817081 20.10863,10.97084711 6.57851,6.824156 9.9186,14.582257 10.37225,24.091798 l 0.17555,3.68 -37.61114,37.76 -37.611138,37.76 z"
         id="path3" />
      <path
         style="display:inline;fill:#08b8a3"
         d="m 116.32,240.43282 c -5.69029,-0.65965 -9.97931,-1.8674 -14.05862,-3.95879 -8.626697,-4.42277 -15.349878,-12.19101 -18.456874,-21.32585 -1.944749,-5.71773 -1.896814,-4.43498 -1.806728,-48.34752 l 0.08222,-40.07933 37.520002,37.14582 37.52,37.14581 -9e-4,1.97352 c -0.007,14.47179 -8.44339,27.78226 -21.54285,33.98753 -5.69021,2.69548 -13.59417,4.11519 -19.25625,3.45881 z M 31.04,156.94593 C 19.457884,154.83874 9.3917119,147.19241 4.1599555,136.52767 0.69479321,129.46407 -0.42328562,121.91625 0.79663173,113.82289 3.2399417,97.613096 16.53452,84.69495 32.96,82.570215 34.287379,82.39851 44.620295,82.255344 56.08,82.24988 L 76.8,82.24 v 37.6 37.6 L 55.12,157.4113 C 38.293583,157.389 32.902703,157.28482 31.04,156.94593 Z M 81.921056,74.536389 C 81.919892,29.897391 81.872373,31.07155 83.914508,25.28 c 2.012573,-5.707712 4.817204,-10.104838 9.184793,-14.4 4.644501,-4.567483 10.401409,-7.8677215 16.571949,-9.500133 4.19706,-1.11032959 12.51674,-1.40840836 16.81671,-0.60251211 7.89219,1.47914351 14.36059,5.00817081 20.10863,10.97084711 6.57851,6.824156 9.9186,14.582257 10.37225,24.091798 l 0.17555,3.68 -37.61114,37.76 -37.611138,37.76 z"
         id="path2" />
    </g>
  </g>
</svg>
